<svg width="89" height="89" viewBox="0 0 89 89" fill="none" xmlns="http://www.w3.org/2000/svg">
<path d="M64.2917 31.4767C64.0932 31.2153 63.8816 30.9641 63.6576 30.724C63.8834 30.1253 64.0548 29.5077 64.1697 28.8785C64.5075 26.5769 64.2125 24.2273 63.3162 22.0794C63.3162 22.0794 60.5849 21.2295 54.3174 25.4304C51.6565 24.6995 48.9082 24.3319 46.1479 24.3376C43.3796 24.3327 40.6233 24.7002 37.9539 25.4304C31.6865 21.1809 28.9551 22.0794 28.9551 22.0794C28.0673 24.204 27.7724 26.5279 28.1016 28.8056C28.2172 29.461 28.3969 30.1035 28.6381 30.724C28.4186 30.9668 28.1992 31.2339 28.0041 31.4767C26.1843 33.7496 25.2183 36.5837 25.2727 39.49C25.2685 40.1792 25.301 40.8682 25.3703 41.554C26.1507 52.3112 33.3448 54.8123 40.1975 55.5894C39.2278 56.4877 38.5702 57.6697 38.3197 58.9646C38.0924 59.8282 37.9857 60.7189 38.0027 61.6115V64.7925C35.2738 65.0353 32.4742 64.6395 31.606 62.2161C30.6735 59.8968 29.128 57.8721 27.1334 56.3567C26.9863 56.2803 26.8474 56.1892 26.7189 56.0847C26.544 55.6261 26.2337 55.231 25.8288 54.9514C25.424 54.6718 24.9436 54.5209 24.4509 54.5185H24.4387C23.794 54.5185 23.1756 54.7727 22.7186 55.2254C22.2616 55.6782 22.0032 56.2927 22 56.9346C21.9927 58.9064 23.9754 60.1812 24.7874 60.6134C25.7347 61.5666 26.4978 62.6852 27.0383 63.9134C27.926 66.3976 30.5232 70.1735 37.9295 69.683L37.9344 69.921L37.9441 70.5717C37.9441 71.2158 38.2011 71.8334 38.6584 72.2888C39.1157 72.7442 39.736 73 40.3828 73H51.8788C52.5255 73 53.1458 72.7442 53.6032 72.2888C54.0605 71.8334 54.3174 71.2158 54.3174 70.5717C54.3174 70.5717 54.337 62.8984 54.337 61.6115C54.3539 60.7189 54.2473 59.8282 54.0199 58.9646L54.015 58.9501L54.0248 58.9646C54.0029 58.8797 53.9712 58.8117 53.9468 58.7291C53.6753 57.5259 53.0465 56.4319 52.1421 55.5894L52.1714 55.6404L52.1226 55.5918C58.9753 54.8147 66.1207 52.2651 66.901 41.5564C66.9703 40.8706 67.0029 40.1817 66.9986 39.4924C67.0419 36.5919 66.0866 33.7616 64.2917 31.4767Z" fill="#D6D6D6" fill-opacity="0.7"/>
<circle cx="44.5" cy="44.5" r="42" stroke="#D6D6D6" stroke-opacity="0.7" stroke-width="5"/>
</svg>
