<svg width="231" height="135" viewBox="0 0 231 135" fill="none" xmlns="http://www.w3.org/2000/svg">
<path d="M91.4696 101.75H60.7V63.875H67.4134C67.4134 72.0003 66.0148 79.0934 63.2175 85.1563C60.4825 91.2191 56.5352 95.8747 51.3759 99.125C46.2166 102.375 40.1559 104 33.1939 104C26.3562 104 20.4509 102.469 15.478 99.4063C10.5052 96.3434 6.68231 92 4.00937 86.375C1.33645 80.6872 0 73.9691 0 66.2188V5.75H31.5155V60.3125C31.5155 63.6247 32.0128 66.4691 33.0074 68.8437C34.002 71.1566 35.4627 72.9378 37.3897 74.1875C39.3788 75.4372 41.8031 76.0625 44.6625 76.0625C47.7084 76.0625 50.3813 75.3753 52.6813 74C55.0433 72.6247 56.8461 70.6878 58.0893 68.1875C59.3946 65.6872 60.0473 62.8128 60.0473 59.5625V5.75H91.4696V101.75ZM140.436 5.75V24.3125H140.996V131.75H109.48V5.75H140.436ZM170.087 104C162.628 104 156.131 102.375 150.599 99.125C145.129 95.8128 140.871 91.1253 137.825 85.0625C134.842 78.9997 133.35 71.9066 133.35 63.7813H140.436V43.7188H133.35C133.35 35.5934 134.842 28.5003 137.825 22.4375C140.871 16.375 145.16 11.7188 150.693 8.46875C156.225 5.15628 162.721 3.5 170.18 3.5C178.074 3.5 185.192 5.68747 191.532 10.0625C197.934 14.4375 202.938 20.4688 206.544 28.1563C210.211 35.7809 212.045 44.3122 212.045 53.75C212.045 63.1878 210.211 71.75 206.544 79.4375C202.876 87.0622 197.841 93.0622 191.439 97.4375C185.099 101.813 177.981 104 170.087 104ZM160.576 76.0625C164.43 76.0625 167.817 75.125 170.74 73.25C173.723 71.375 176.023 68.75 177.639 65.375C179.318 62 180.157 58.1253 180.157 53.75C180.157 49.3747 179.318 45.5 177.639 42.125C176.023 38.75 173.723 36.125 170.74 34.25C167.817 32.375 164.43 31.4375 160.576 31.4375C156.722 31.4375 153.303 32.375 150.32 34.25C147.398 36.125 145.098 38.75 143.42 42.125C141.803 45.5 140.996 49.3747 140.996 53.75C140.996 58.1253 141.803 62 143.42 65.375C145.098 68.75 147.398 71.375 150.32 73.25C153.303 75.125 156.722 76.0625 160.576 76.0625Z" fill="#121212"/>
<path d="M156.272 5.75V24.3125H156.832V131.75H125.316V5.75H156.272ZM185.923 104C178.464 104 171.968 102.375 166.436 99.125C160.965 95.8128 156.708 91.1253 153.662 85.0625C150.678 78.9997 149.186 71.9066 149.186 63.7813H156.272V43.7188H149.186C149.186 35.5934 150.678 28.5003 153.662 22.4375C156.708 16.375 160.997 11.7188 166.529 8.46875C172.061 5.15628 178.557 3.5 186.016 3.5C193.911 3.5 201.028 5.68747 207.369 10.0625C213.771 14.4375 218.775 20.4688 222.38 28.1563C226.048 35.7809 227.882 44.3122 227.882 53.75C227.882 63.1878 226.048 71.75 222.38 79.4375C218.713 87.0622 213.678 93.0622 207.275 97.4375C200.935 101.813 193.818 104 185.923 104ZM176.413 76.0625C180.266 76.0625 183.655 75.125 186.576 73.25C189.56 71.375 191.86 68.75 193.476 65.375C195.154 62 195.993 58.1253 195.993 53.75C195.993 49.3747 195.154 45.5 193.476 42.125C191.86 38.75 189.56 36.125 186.576 34.25C183.655 32.375 180.266 31.4375 176.413 31.4375C172.559 31.4375 169.14 32.375 166.156 34.25C163.235 36.125 160.935 38.75 159.256 42.125C157.64 45.5 156.832 49.3747 156.832 53.75C156.832 58.1253 157.64 62 159.256 65.375C160.935 68.75 163.235 71.375 166.156 73.25C169.14 75.125 172.559 76.0625 176.413 76.0625Z" fill="#FAFAFA"/>
<mask id="mask0_387_113" style="mask-type:luminance" maskUnits="userSpaceOnUse" x="123" y="2" width="107" height="131">
<path d="M229.28 2.375H123.917V132.688H229.28V2.375Z" fill="white"/>
<path d="M156.271 5.75V24.3125H156.831V131.75H125.315V5.75H156.271ZM185.922 104C178.463 104 171.967 102.375 166.435 99.125C160.964 95.8128 156.707 91.1253 153.661 85.0625C150.677 78.9997 149.185 71.9066 149.185 63.7813H156.271V43.7188H149.185C149.185 35.5934 150.677 28.5003 153.661 22.4375C156.707 16.375 160.996 11.7188 166.528 8.46875C172.06 5.15628 178.556 3.5 186.015 3.5C193.91 3.5 201.027 5.68747 207.368 10.0625C213.771 14.4375 218.774 20.4688 222.379 28.1563C226.047 35.7809 227.881 44.3122 227.881 53.75C227.881 63.1878 226.047 71.75 222.379 79.4375C218.712 87.0622 213.677 93.0622 207.274 97.4375C200.934 101.813 193.817 104 185.922 104ZM176.412 76.0625C180.265 76.0625 183.654 75.125 186.575 73.25C189.559 71.375 191.859 68.75 193.475 65.375C195.153 62 195.992 58.1253 195.992 53.75C195.992 49.3747 195.153 45.5 193.475 42.125C191.859 38.75 189.559 36.125 186.575 34.25C183.654 32.375 180.265 31.4375 176.412 31.4375C172.558 31.4375 169.139 32.375 166.155 34.25C163.234 36.125 160.934 38.75 159.255 42.125C157.639 45.5 156.831 49.3747 156.831 53.75C156.831 58.1253 157.639 62 159.255 65.375C160.934 68.75 163.234 71.375 166.155 73.25C169.139 75.125 172.558 76.0625 176.412 76.0625Z" fill="black"/>
</mask>
<g mask="url(#mask0_387_113)">
<path d="M156.271 5.75H157.204V4.8125H156.271V5.75ZM156.271 24.3125H155.339V25.25H156.271V24.3125ZM156.831 24.3125H157.763V23.375H156.831V24.3125ZM156.831 131.75V132.688H157.763V131.75H156.831ZM125.315 131.75H124.383V132.688H125.315V131.75ZM125.315 5.75V4.8125H124.383V5.75H125.315ZM166.435 99.125L165.953 99.9284L165.965 99.9341L166.435 99.125ZM153.661 85.0625L152.825 85.4788L152.828 85.4853L153.661 85.0625ZM149.185 63.7813V62.8438H148.253V63.7813H149.185ZM156.271 63.7813V64.7188H157.204V63.7813H156.271ZM156.271 43.7188H157.204V42.7813H156.271V43.7188ZM149.185 43.7188H148.253V44.6563H149.185V43.7188ZM153.661 22.4375L152.828 22.0147L152.825 22.0213L153.661 22.4375ZM166.528 8.46875L166.998 9.27829L167.005 9.27425L166.528 8.46875ZM207.367 10.0625L206.84 10.8355L206.843 10.8379L207.367 10.0625ZM222.379 28.1563L221.535 28.5566L221.54 28.5641L222.379 28.1563ZM222.379 79.4375L223.218 79.8453L223.22 79.8425L222.379 79.4375ZM207.274 97.4375L206.75 96.6622L206.746 96.6641L207.274 97.4375ZM186.575 73.25L186.08 72.455L186.073 72.4597L186.575 73.25ZM193.475 65.375L192.641 64.9559L192.637 64.9616L192.634 64.9681L193.475 65.375ZM193.475 42.125L192.634 42.5319L192.637 42.5384L192.641 42.5441L193.475 42.125ZM186.575 34.25L186.073 35.0403L186.08 35.045L186.575 34.25ZM166.155 34.25L165.661 33.455L165.653 33.4597L166.155 34.25ZM159.255 42.125L158.421 41.7059L158.418 41.7116L158.415 41.7181L159.255 42.125ZM159.255 65.375L158.415 65.7819L158.418 65.7884L158.421 65.7941L159.255 65.375ZM166.155 73.25L165.653 74.0403L165.661 74.045L166.155 73.25ZM156.271 5.75H155.339V24.3125H156.271H157.204V5.75H156.271ZM156.271 24.3125V25.25H156.831V24.3125V23.375H156.271V24.3125ZM156.831 24.3125H155.898V131.75H156.831H157.763V24.3125H156.831ZM156.831 131.75V130.813H125.315V131.75V132.688H156.831V131.75ZM125.315 131.75H126.248V5.75H125.315H124.383V131.75H125.315ZM125.315 5.75V6.6875H156.271V5.75V4.8125H125.315V5.75ZM185.922 104V103.062C178.601 103.062 172.272 101.469 166.905 98.3159L166.435 99.125L165.965 99.9341C171.661 103.281 178.325 104.937 185.922 104.937V104ZM166.435 99.125L166.916 98.3216C161.605 95.1059 157.465 90.5544 154.493 84.6397L153.661 85.0625L152.828 85.4853C155.949 91.6953 160.324 96.5188 165.953 99.9284L166.435 99.125ZM153.661 85.0625L154.496 84.6462C151.588 78.7372 150.117 71.7903 150.117 63.7813H149.185H148.253C148.253 72.0219 149.766 79.2631 152.825 85.4788L153.661 85.0625ZM149.185 63.7813V64.7188H156.271V63.7813V62.8438H149.185V63.7813ZM156.271 63.7813H157.204V43.7188H156.271H155.339V63.7813H156.271ZM156.271 43.7188V42.7813H149.185V43.7188V44.6563H156.271V43.7188ZM149.185 43.7188H150.117C150.117 35.7097 151.588 28.7628 154.496 22.8538L153.661 22.4375L152.825 22.0213C149.766 28.2369 148.253 35.4781 148.253 43.7188H149.185ZM153.661 22.4375L154.493 22.8603C157.462 16.9498 161.63 12.4321 166.998 9.27829L166.528 8.46875L166.058 7.65931C160.362 11.0055 155.951 15.8002 152.828 22.0147L153.661 22.4375ZM166.528 8.46875L167.005 9.27425C172.371 6.06106 178.697 4.4375 186.015 4.4375V3.5V2.5625C178.415 2.5625 171.749 4.25141 166.05 7.66325L166.528 8.46875ZM186.015 3.5V4.4375C193.726 4.4375 200.659 6.57059 206.84 10.8355L207.367 10.0625L207.895 9.28954C201.395 4.80435 194.093 2.5625 186.015 2.5625V3.5ZM207.367 10.0625L206.843 10.8379C213.095 15.1101 217.994 21.0059 221.535 28.5566L222.379 28.1563L223.222 27.7559C219.553 19.9316 214.444 13.7649 207.891 9.2871L207.367 10.0625ZM222.379 28.1563L221.54 28.5641C225.139 36.0481 226.948 44.4378 226.948 53.75H227.881H228.813C228.813 44.1875 226.954 35.5147 223.218 27.7484L222.379 28.1563ZM227.881 53.75H226.948C226.948 63.0622 225.139 71.4838 221.538 79.0325L222.379 79.4375L223.22 79.8425C226.954 72.0163 228.813 63.3125 228.813 53.75H227.881ZM222.379 79.4375L221.54 79.0297C217.937 86.5194 213.006 92.3872 206.75 96.6622L207.274 97.4375L207.798 98.2128C214.348 93.7372 219.486 87.605 223.218 79.8453L222.379 79.4375ZM207.274 97.4375L206.746 96.6641C200.566 100.93 193.633 103.062 185.922 103.062V104V104.937C193.999 104.937 201.302 102.696 207.802 98.2109L207.274 97.4375ZM176.411 76.0625V77C180.423 77 183.988 76.0222 187.076 74.0403L186.575 73.25L186.073 72.4597C183.318 74.2278 180.108 75.125 176.411 75.125V76.0625ZM186.575 73.25L187.069 74.045C190.211 72.0706 192.627 69.3069 194.315 65.7819L193.475 65.375L192.634 64.9681C191.09 68.1931 188.906 70.6794 186.08 72.455L186.575 73.25ZM193.475 65.375L194.308 65.7941C196.061 62.27 196.924 58.2472 196.924 53.75H195.992H195.06C195.06 58.0025 194.245 61.73 192.641 64.9559L193.475 65.375ZM195.992 53.75H196.924C196.924 49.2528 196.061 45.23 194.308 41.7059L193.475 42.125L192.641 42.5441C194.245 45.77 195.06 49.4975 195.06 53.75H195.992ZM193.475 42.125L194.315 41.7181C192.627 38.1931 190.211 35.4294 187.069 33.455L186.575 34.25L186.08 35.045C188.906 36.8206 191.09 39.3069 192.634 42.5319L193.475 42.125ZM186.575 34.25L187.076 33.4597C183.988 31.4778 180.423 30.5 176.411 30.5V31.4375V32.375C180.108 32.375 183.318 33.2722 186.073 35.0403L186.575 34.25ZM176.411 31.4375V30.5C172.4 30.5 168.807 31.4778 165.661 33.455L166.155 34.25L166.649 35.045C169.471 33.2722 172.715 32.375 176.411 32.375V31.4375ZM166.155 34.25L165.653 33.4597C162.578 35.4331 160.168 38.1922 158.421 41.7059L159.255 42.125L160.089 42.5441C161.699 39.3078 163.889 36.8169 166.656 35.0403L166.155 34.25ZM159.255 42.125L158.415 41.7181C156.728 45.2394 155.898 49.2575 155.898 53.75H156.831H157.763C157.763 49.4919 158.549 45.7606 160.095 42.5319L159.255 42.125ZM156.831 53.75H155.898C155.898 58.2425 156.728 62.2606 158.415 65.7819L159.255 65.375L160.095 64.9681C158.549 61.7394 157.763 58.0081 157.763 53.75H156.831ZM159.255 65.375L158.421 65.7941C160.168 69.3078 162.578 72.0669 165.653 74.0403L166.155 73.25L166.656 72.4597C163.889 70.6831 161.699 68.1922 160.089 64.9559L159.255 65.375ZM166.155 73.25L165.661 74.045C168.807 76.0222 172.4 77 176.411 77V76.0625V75.125C172.715 75.125 169.471 74.2278 166.649 72.455L166.155 73.25Z" fill="#121212"/>
</g>
<path d="M127.181 133.625H123.452C123.194 133.625 122.985 133.415 122.985 133.156V129.406C122.985 129.148 123.194 128.938 123.452 128.938H127.181C127.439 128.938 127.647 129.148 127.647 129.406V133.156C127.647 133.415 127.439 133.625 127.181 133.625Z" fill="#FAFAFA" stroke="#121212"/>
<path d="M158.882 133.625H155.153C154.895 133.625 154.687 133.415 154.687 133.156V129.406C154.687 129.148 154.895 128.938 155.153 128.938H158.882C159.14 128.938 159.349 129.148 159.349 129.406V133.156C159.349 133.415 159.14 133.625 158.882 133.625Z" fill="#FAFAFA" stroke="#121212"/>
<path d="M158.882 93.3125H155.153C154.895 93.3125 154.687 93.1025 154.687 92.8438V89.0938C154.687 88.835 154.895 88.625 155.153 88.625H158.882C159.14 88.625 159.349 88.835 159.349 89.0938V92.8438C159.349 93.1025 159.14 93.3125 158.882 93.3125Z" fill="#FAFAFA" stroke="#121212"/>
<path d="M195.247 109.25H186.855C186.598 109.25 186.389 109.04 186.389 108.781V100.344C186.389 100.085 186.598 99.875 186.855 99.875H195.247C195.504 99.875 195.713 100.085 195.713 100.344V108.781C195.713 109.04 195.504 109.25 195.247 109.25Z" fill="#FAFAFA" stroke="#121212" stroke-width="2"/>
<path d="M229.746 56.75H226.016C225.759 56.75 225.55 56.54 225.55 56.2812V52.5312C225.55 52.2725 225.759 52.0625 226.016 52.0625H229.746C230.003 52.0625 230.212 52.2725 230.212 52.5312V56.2812C230.212 56.54 230.003 56.75 229.746 56.75Z" fill="#FAFAFA" stroke="#121212"/>
<path d="M192.45 5.1875H188.72C188.463 5.1875 188.254 4.97759 188.254 4.71875V0.96875C188.254 0.709906 188.463 0.5 188.72 0.5H192.45C192.707 0.5 192.916 0.709906 192.916 0.96875V4.71875C192.916 4.97759 192.707 5.1875 192.45 5.1875Z" fill="#FAFAFA" stroke="#121212"/>
<path d="M158.882 8H155.153C154.895 8 154.687 7.79009 154.687 7.53125V3.78125C154.687 3.52241 154.895 3.3125 155.153 3.3125H158.882C159.14 3.3125 159.349 3.52241 159.349 3.78125V7.53125C159.349 7.79009 159.14 8 158.882 8Z" fill="#FAFAFA" stroke="#121212"/>
<path d="M158.882 19.25H155.153C154.895 19.25 154.687 19.04 154.687 18.7812V15.0312C154.687 14.7724 154.895 14.5625 155.153 14.5625H158.882C159.14 14.5625 159.349 14.7724 159.349 15.0312V18.7812C159.349 19.04 159.14 19.25 158.882 19.25Z" fill="#FAFAFA" stroke="#121212"/>
<path d="M127.181 8H123.452C123.194 8 122.985 7.79009 122.985 7.53125V3.78125C122.985 3.52241 123.194 3.3125 123.452 3.3125H127.181C127.439 3.3125 127.647 3.52241 127.647 3.78125V7.53125C127.647 7.79009 127.439 8 127.181 8Z" fill="#FAFAFA" stroke="#121212"/>
<path d="M127.181 56.75H123.452C123.194 56.75 122.985 56.54 122.985 56.2812V52.5312C122.985 52.2725 123.194 52.0625 123.452 52.0625H127.181C127.439 52.0625 127.647 52.2725 127.647 52.5312V56.2812C127.647 56.54 127.439 56.75 127.181 56.75Z" fill="#FAFAFA" stroke="#121212"/>
<mask id="mask1_387_113" style="mask-type:luminance" maskUnits="userSpaceOnUse" x="189" y="101" width="27" height="28">
<path d="M215.339 126.531L213.833 101.75L189.187 103.264L190.693 128.045L215.339 126.531Z" fill="white"/>
</mask>
<g mask="url(#mask1_387_113)">
<path fill-rule="evenodd" clip-rule="evenodd" d="M213.84 118.3C213.915 118.368 213.978 118.449 214.023 118.541C214.067 118.633 214.093 118.732 214.099 118.834C214.106 118.937 214.092 119.038 214.059 119.134C214.025 119.231 213.974 119.32 213.906 119.397L208.121 125.971C208.054 126.047 207.973 126.109 207.882 126.154C207.79 126.199 207.692 126.225 207.59 126.231C207.488 126.238 207.332 126.231 207.292 126.19C207.195 126.157 207.042 126.046 206.966 125.978L203.922 123.272L198.74 122.301C198.346 122.227 197.978 122.052 197.671 121.791C197.364 121.532 197.13 121.195 196.991 120.816L191.236 105.088L207.465 108.917C207.856 109.009 208.215 109.202 208.509 109.475C208.803 109.749 209.021 110.096 209.142 110.48L210.729 115.533L213.84 118.3ZM209.191 115.788L207.671 110.948C207.63 110.82 207.557 110.704 207.459 110.613C207.361 110.521 207.24 110.457 207.11 110.426L193.675 107.256L198.44 120.282C198.487 120.408 198.564 120.518 198.667 120.605C198.768 120.692 198.89 120.75 199.022 120.774L203.986 121.703L209.191 115.788Z" fill="#121212"/>
<path d="M197.488 120.728L192.289 106.791C192.158 106.439 192.469 106.084 192.832 106.169L207.594 109.661C207.744 109.697 207.867 109.805 207.922 109.95L210.06 115.539C210.125 115.706 210.088 115.896 209.967 116.027L204.284 122.18C204.172 122.301 204.005 122.353 203.845 122.318L197.826 121.022C197.671 120.989 197.544 120.878 197.488 120.728Z" fill="#FAFAFA" stroke="#121212" stroke-width="0.5"/>
<path fill-rule="evenodd" clip-rule="evenodd" d="M193.913 107.914L200.752 115.665C200.764 115.971 200.867 116.268 201.046 116.516C201.226 116.764 201.475 116.953 201.761 117.059C202.047 117.165 202.359 117.184 202.655 117.111C202.952 117.039 203.221 116.881 203.428 116.655C203.635 116.43 203.771 116.148 203.819 115.844C203.865 115.541 203.823 115.231 203.695 114.952C203.567 114.674 203.36 114.439 203.099 114.279C202.839 114.119 202.537 114.04 202.232 114.052L194.001 107.818L193.867 107.783L193.913 107.914Z" fill="#121212"/>
</g>
</svg>
