<svg width="734" height="734" viewBox="0 0 734 734" fill="none" xmlns="http://www.w3.org/2000/svg">
<path fill-rule="evenodd" clip-rule="evenodd" d="M366.666 566.666C477.123 566.666 566.666 477.123 566.666 366.666C566.666 256.209 477.123 166.666 366.666 166.666C256.209 166.666 166.666 256.209 166.666 366.666C166.666 477.123 256.209 566.666 366.666 566.666ZM366.666 499.999C440.303 499.999 499.999 440.303 499.999 366.666C499.999 293.028 440.303 233.333 366.666 233.333C293.028 233.333 233.333 293.028 233.333 366.666C233.333 440.303 293.028 499.999 366.666 499.999Z" fill="#D6D6D6" fill-opacity="0.7"/>
<path d="M566.667 133.334C548.257 133.334 533.334 148.258 533.334 166.667C533.334 185.077 548.257 200.001 566.667 200.001C585.077 200.001 600.001 185.077 600.001 166.667C600.001 148.258 585.077 133.334 566.667 133.334Z" fill="#D6D6D6" fill-opacity="0.7"/>
<path fill-rule="evenodd" clip-rule="evenodd" d="M21.7987 109.202C0 151.984 0 207.99 0 320V413.333C0 525.343 0 581.35 21.7987 624.13C40.9733 661.763 71.5693 692.36 109.202 711.533C151.984 733.333 207.99 733.333 320 733.333H413.333C525.343 733.333 581.35 733.333 624.13 711.533C661.763 692.36 692.36 661.763 711.533 624.13C733.333 581.35 733.333 525.343 733.333 413.333V320C733.333 207.99 733.333 151.984 711.533 109.202C692.36 71.5693 661.763 40.9733 624.13 21.7987C581.35 0 525.343 0 413.333 0H320C207.99 0 151.984 0 109.202 21.7987C71.5693 40.9733 40.9733 71.5693 21.7987 109.202ZM413.333 66.6667H320C262.895 66.6667 224.075 66.7187 194.069 69.17C164.841 71.558 149.895 75.8863 139.468 81.199C114.38 93.9823 93.9823 114.38 81.199 139.468C75.8863 149.895 71.558 164.841 69.17 194.069C66.7187 224.075 66.6667 262.895 66.6667 320V413.333C66.6667 470.44 66.7187 509.257 69.17 539.263C71.558 568.493 75.8863 583.44 81.199 593.867C93.9823 618.953 114.38 639.35 139.468 652.133C149.895 657.447 164.841 661.777 194.069 664.163C224.075 666.613 262.895 666.667 320 666.667H413.333C470.44 666.667 509.257 666.613 539.263 664.163C568.493 661.777 583.44 657.447 593.867 652.133C618.953 639.35 639.35 618.953 652.133 593.867C657.447 583.44 661.777 568.493 664.163 539.263C666.613 509.257 666.667 470.44 666.667 413.333V320C666.667 262.895 666.613 224.075 664.163 194.069C661.777 164.841 657.447 149.895 652.133 139.468C639.35 114.38 618.953 93.9823 593.867 81.199C583.44 75.8863 568.493 71.558 539.263 69.17C509.257 66.7187 470.44 66.6667 413.333 66.6667Z" fill="#D6D6D6" fill-opacity="0.7"/>
</svg>
