<svg width="607" height="225" viewBox="0 0 607 225" fill="none" xmlns="http://www.w3.org/2000/svg">
<path d="M99.0223 178.125H68.2527V140.25H74.9661C74.9661 148.375 73.5675 155.468 70.7703 161.531C68.0352 167.594 64.0879 172.25 58.9286 175.5C53.7693 178.75 47.7086 180.375 40.7466 180.375C33.9089 180.375 28.0036 178.844 23.0308 175.781C18.0579 172.718 14.235 168.375 11.5621 162.75C8.88919 157.062 7.55273 150.344 7.55273 142.594V82.125H39.0683V136.688C39.0683 140 39.5655 142.844 40.5601 145.219C41.5547 147.532 43.0154 149.313 44.9424 150.563C46.9316 151.812 49.3558 152.438 52.2153 152.438C55.2612 152.438 57.934 151.75 60.234 150.375C62.5961 149 64.3988 147.063 65.642 144.562C66.9474 142.062 67.6001 139.188 67.6001 135.938V82.125H99.0223V178.125ZM147.989 82.125V100.688H148.548V208.125H117.033V82.125H147.989ZM177.64 180.375C170.18 180.375 163.684 178.75 158.152 175.5C152.682 172.188 148.423 167.5 145.378 161.438C142.394 155.375 140.903 148.282 140.903 140.156H147.989V120.094H140.903C140.903 111.968 142.394 104.875 145.378 98.8125C148.423 92.75 152.712 88.0938 158.245 84.8438C163.777 81.5313 170.273 79.875 177.733 79.875C185.627 79.875 192.745 82.0625 199.085 86.4375C205.487 90.8125 210.491 96.8438 214.097 104.531C217.764 112.156 219.598 120.687 219.598 130.125C219.598 139.563 217.764 148.125 214.097 155.812C210.429 163.437 205.394 169.437 198.992 173.812C192.651 178.188 185.533 180.375 177.64 180.375ZM168.129 152.438C171.983 152.438 175.37 151.5 178.292 149.625C181.276 147.75 183.575 145.125 185.192 141.75C186.87 138.375 187.71 134.5 187.71 130.125C187.71 125.75 186.87 121.875 185.192 118.5C183.575 115.125 181.276 112.5 178.292 110.625C175.37 108.75 171.983 107.813 168.129 107.813C164.274 107.813 160.856 108.75 157.872 110.625C154.95 112.5 152.651 115.125 150.973 118.5C149.356 121.875 148.548 125.75 148.548 130.125C148.548 134.5 149.356 138.375 150.973 141.75C152.651 145.125 154.95 147.75 157.872 149.625C160.856 151.5 164.274 152.438 168.129 152.438Z" fill="#FAFAFA"/>
<path d="M338.652 178.125H307.883V140.25H314.596C314.596 148.375 313.197 155.468 310.4 161.531C307.665 167.594 303.718 172.25 298.559 175.5C293.399 178.75 287.339 180.375 280.376 180.375C273.539 180.375 267.633 178.844 262.661 175.781C257.688 172.718 253.865 168.375 251.192 162.75C248.519 157.062 247.183 150.344 247.183 142.594V82.125H278.698V136.687C278.698 140 279.195 142.844 280.19 145.219C281.185 147.532 282.645 149.313 284.572 150.562C286.561 151.812 288.985 152.437 291.845 152.437C294.891 152.437 297.564 151.75 299.864 150.375C302.226 149 304.029 147.063 305.272 144.562C306.577 142.062 307.23 139.188 307.23 135.937V82.125H338.652V178.125ZM357.595 46.875H389.111V178.125H357.595V46.875ZM448.861 180.375C440.47 180.375 432.949 179.062 426.297 176.437C419.646 173.812 414.331 170.125 410.353 165.375C406.437 160.625 404.231 155.156 403.733 148.969H435.248C435.621 150.593 436.399 151.938 437.579 153C438.761 154.062 440.283 154.844 442.148 155.344C444.075 155.843 446.313 156.094 448.861 156.094C451.099 156.094 453.12 155.875 454.922 155.437C456.787 155 458.248 154.343 459.304 153.469C460.423 152.594 460.983 151.531 460.983 150.281C460.983 149.219 460.61 148.219 459.864 147.281C459.18 146.281 458.248 145.469 457.067 144.844C455.886 144.157 454.612 143.719 453.244 143.531L431.332 140.437C426.297 139.75 421.821 138.063 417.905 135.375C414.052 132.687 411.037 129.312 408.861 125.25C406.748 121.125 405.691 116.625 405.691 111.75C405.691 105.5 407.369 99.9684 410.726 95.1562C414.082 90.2812 418.838 86.5312 424.992 83.9062C431.146 81.2187 438.357 79.875 446.624 79.875C454.269 79.875 461.262 81.1563 467.603 83.7188C474.006 86.2812 479.165 89.9062 483.081 94.5937C486.997 99.2812 489.235 104.688 489.794 110.812H458.279C457.906 109.312 457.16 108 456.041 106.875C454.922 105.687 453.555 104.782 451.938 104.156C450.322 103.531 448.551 103.219 446.624 103.219C444.511 103.219 442.646 103.5 441.029 104.062C439.476 104.562 438.264 105.281 437.393 106.219C436.523 107.156 436.087 108.281 436.087 109.594C436.087 110.906 436.647 111.875 437.766 112.5C438.885 113.062 440.563 113.5 442.801 113.812L464.526 117.281C469.81 118.094 474.503 120 478.605 123C482.77 126 486.003 129.719 488.302 134.156C490.603 138.532 491.752 143.219 491.752 148.219C491.752 154.406 489.857 159.968 486.065 164.906C482.273 169.781 477.113 173.594 470.587 176.344C464.06 179.032 456.819 180.375 448.861 180.375ZM551.975 180.375C542.154 180.375 533.327 178.219 525.494 173.906C517.662 169.594 511.508 163.625 507.033 156C502.557 148.312 500.319 139.657 500.319 130.031C500.319 120.469 502.557 111.875 507.033 104.25C511.508 96.6253 517.662 90.6562 525.494 86.3437C533.389 82.0312 542.215 79.875 551.975 79.875C561.859 79.875 570.654 82.0312 578.362 86.3437C586.07 90.5937 592.069 96.5316 596.358 104.156C600.709 111.719 602.885 120.281 602.885 129.844V137.906H532.301L532.394 131.906C532.394 136.718 533.203 140.969 534.819 144.656C536.434 148.282 538.735 151.094 541.718 153.094C544.702 155.032 548.183 156 552.161 156C555.456 156 558.409 155.407 561.019 154.219C563.63 153.031 565.868 151.312 567.733 149.062H600.927C598.689 155.437 595.239 160.969 590.577 165.656C585.977 170.344 580.351 173.969 573.7 176.531C567.111 179.093 559.87 180.375 551.975 180.375ZM532.301 119.437H571.556V128.156C571.556 123.281 570.747 119.062 569.131 115.5C567.577 111.875 565.339 109.094 562.418 107.156C559.497 105.218 556.015 104.25 551.975 104.25C547.935 104.25 544.453 105.218 541.532 107.156C538.611 109.094 536.341 111.875 534.725 115.5C533.171 119.062 532.394 123.281 532.394 128.156L532.301 119.437Z" fill="#FAFAFA"/>
<path d="M163.825 82.125V100.688H164.385V208.125H132.869V82.125H163.825ZM193.476 180.375C186.017 180.375 179.52 178.75 173.988 175.5C168.518 172.188 164.261 167.5 161.214 161.438C158.231 155.375 156.739 148.282 156.739 140.156H163.825V120.094H156.739C156.739 111.968 158.231 104.875 161.214 98.8125C164.261 92.75 168.55 88.0938 174.082 84.8438C179.614 81.5313 186.11 79.875 193.569 79.875C201.464 79.875 208.581 82.0625 214.921 86.4375C221.324 90.8125 226.328 96.8438 229.933 104.531C233.6 112.156 235.434 120.687 235.434 130.125C235.434 139.563 233.6 148.125 229.933 155.812C226.266 163.437 221.231 169.437 214.828 173.812C208.488 178.188 201.371 180.375 193.476 180.375ZM183.965 152.438C187.819 152.438 191.207 151.5 194.129 149.625C197.112 147.75 199.413 145.125 201.028 141.75C202.707 138.375 203.546 134.5 203.546 130.125C203.546 125.75 202.707 121.875 201.028 118.5C199.413 115.125 197.112 112.5 194.129 110.625C191.207 108.75 187.819 107.813 183.965 107.813C180.112 107.813 176.692 108.75 173.709 110.625C170.788 112.5 168.487 115.125 166.809 118.5C165.193 121.875 164.385 125.75 164.385 130.125C164.385 134.5 165.193 138.375 166.809 141.75C168.487 145.125 170.788 147.75 173.709 149.625C176.692 151.5 180.112 152.438 183.965 152.438Z" fill="#121212"/>
<mask id="mask0_386_77" style="mask-type:luminance" maskUnits="userSpaceOnUse" x="131" y="78" width="106" height="132">
<path d="M236.832 78.75H131.47V209.062H236.832V78.75Z" fill="white"/>
<path d="M163.824 82.125V100.688H164.384V208.125H132.868V82.125H163.824ZM193.475 180.375C186.016 180.375 179.52 178.75 173.988 175.5C168.517 172.188 164.26 167.5 161.213 161.438C158.23 155.375 156.738 148.282 156.738 140.156H163.824V120.094H156.738C156.738 111.968 158.23 104.875 161.213 98.8125C164.26 92.75 168.549 88.0938 174.081 84.8438C179.613 81.5313 186.109 79.875 193.568 79.875C201.463 79.875 208.58 82.0625 214.92 86.4375C221.323 90.8125 226.327 96.8438 229.932 104.531C233.599 112.156 235.433 120.687 235.433 130.125C235.433 139.563 233.599 148.125 229.932 155.812C226.265 163.437 221.23 169.437 214.827 173.812C208.487 178.188 201.37 180.375 193.475 180.375ZM183.964 152.438C187.818 152.438 191.206 151.5 194.128 149.625C197.111 147.75 199.412 145.125 201.027 141.75C202.706 138.375 203.545 134.5 203.545 130.125C203.545 125.75 202.706 121.875 201.027 118.5C199.412 115.125 197.111 112.5 194.128 110.625C191.206 108.75 187.818 107.813 183.964 107.813C180.111 107.813 176.692 108.75 173.708 110.625C170.787 112.5 168.486 115.125 166.808 118.5C165.192 121.875 164.384 125.75 164.384 130.125C164.384 134.5 165.192 138.375 166.808 141.75C168.486 145.125 170.787 147.75 173.708 149.625C176.692 151.5 180.111 152.438 183.964 152.438Z" fill="black"/>
</mask>
<g mask="url(#mask0_386_77)">
<path d="M163.824 82.125H164.756V81.1875H163.824V82.125ZM163.824 100.688H162.892V101.625H163.824V100.688ZM164.383 100.688H165.316V99.75H164.383V100.688ZM164.383 208.125V209.063H165.316V208.125H164.383ZM132.868 208.125H131.936V209.063H132.868V208.125ZM132.868 82.125V81.1875H131.936V82.125H132.868ZM173.987 175.5L173.506 176.303L173.517 176.309L173.987 175.5ZM161.213 161.438L160.378 161.854L160.381 161.86L161.213 161.438ZM156.738 140.156V139.219H155.805V140.156H156.738ZM163.824 140.156V141.094H164.756V140.156H163.824ZM163.824 120.094H164.756V119.156H163.824V120.094ZM156.738 120.094H155.805V121.031H156.738V120.094ZM161.213 98.8125L160.381 98.3897L160.378 98.3963L161.213 98.8125ZM174.081 84.8438L174.55 85.6533L174.558 85.6493L174.081 84.8438ZM214.92 86.4375L214.392 87.2105L214.396 87.2129L214.92 86.4375ZM229.932 104.531L229.088 104.932L229.093 104.939L229.932 104.531ZM229.932 155.812L230.771 156.22L230.773 156.218L229.932 155.812ZM214.827 173.812L214.303 173.037L214.299 173.039L214.827 173.812ZM194.127 149.625L193.633 148.83L193.626 148.835L194.127 149.625ZM201.027 141.75L200.194 141.331L200.19 141.337L200.187 141.343L201.027 141.75ZM201.027 118.5L200.187 118.907L200.19 118.913L200.194 118.919L201.027 118.5ZM194.127 110.625L193.626 111.415L193.633 111.42L194.127 110.625ZM173.708 110.625L173.213 109.83L173.206 109.835L173.708 110.625ZM166.808 118.5L165.974 118.081L165.97 118.087L165.968 118.093L166.808 118.5ZM166.808 141.75L165.968 142.157L165.97 142.163L165.974 142.169L166.808 141.75ZM173.708 149.625L173.206 150.415L173.213 150.42L173.708 149.625ZM163.824 82.125H162.892V100.688H163.824H164.756V82.125H163.824ZM163.824 100.688V101.625H164.383V100.688V99.75H163.824V100.688ZM164.383 100.688H163.451V208.125H164.383H165.316V100.688H164.383ZM164.383 208.125V207.188H132.868V208.125V209.063H164.383V208.125ZM132.868 208.125H133.8V82.125H132.868H131.936V208.125H132.868ZM132.868 82.125V83.0625H163.824V82.125V81.1875H132.868V82.125ZM193.475 180.375V179.437C186.153 179.437 179.825 177.844 174.457 174.691L173.987 175.5L173.517 176.309C179.213 179.656 185.877 181.312 193.475 181.312V180.375ZM173.987 175.5L174.468 174.697C169.157 171.481 165.018 166.929 162.046 161.015L161.213 161.438L160.381 161.86C163.501 168.07 167.877 172.894 173.506 176.303L173.987 175.5ZM161.213 161.438L162.049 161.021C159.141 155.112 157.67 148.165 157.67 140.156H156.738H155.805C155.805 148.397 157.319 155.638 160.378 161.854L161.213 161.438ZM156.738 140.156V141.094H163.824V140.156V139.219H156.738V140.156ZM163.824 140.156H164.756V120.094H163.824H162.892V140.156H163.824ZM163.824 120.094V119.156H156.738V120.094V121.031H163.824V120.094ZM156.738 120.094H157.67C157.67 112.085 159.141 105.138 162.049 99.2288L161.213 98.8125L160.378 98.3963C157.319 104.612 155.805 111.853 155.805 120.094H156.738ZM161.213 98.8125L162.046 99.2353C165.015 93.3248 169.183 88.8071 174.55 85.6533L174.081 84.8438L173.611 84.0343C167.915 87.3805 163.503 92.1752 160.381 98.3897L161.213 98.8125ZM174.081 84.8438L174.558 85.6493C179.924 82.4361 186.249 80.8125 193.568 80.8125V79.875V78.9375C185.968 78.9375 179.302 80.6264 173.603 84.0383L174.081 84.8438ZM193.568 79.875V80.8125C201.279 80.8125 208.211 82.9456 214.392 87.2105L214.92 86.4375L215.448 85.6645C208.948 81.1793 201.645 78.9375 193.568 78.9375V79.875ZM214.92 86.4375L214.396 87.2129C220.648 91.4851 225.547 97.3809 229.088 104.932L229.932 104.531L230.775 104.131C227.106 96.3066 221.997 90.1399 215.444 85.6621L214.92 86.4375ZM229.932 104.531L229.093 104.939C232.692 112.423 234.501 120.813 234.501 130.125H235.433H236.366C236.366 120.563 234.506 111.89 230.771 104.123L229.932 104.531ZM235.433 130.125H234.501C234.501 139.437 232.692 147.859 229.091 155.408L229.932 155.812L230.773 156.218C234.506 148.391 236.366 139.688 236.366 130.125H235.433ZM229.932 155.812L229.093 155.405C225.49 162.894 220.558 168.762 214.303 173.037L214.827 173.812L215.351 174.588C221.901 170.112 227.039 163.98 230.771 156.22L229.932 155.812ZM214.827 173.812L214.299 173.039C208.118 177.305 201.186 179.437 193.475 179.437V180.375V181.312C201.552 181.312 208.855 179.071 215.355 174.586L214.827 173.812ZM183.964 152.438V153.375C187.975 153.375 191.541 152.397 194.629 150.415L194.127 149.625L193.626 148.835C190.87 150.603 187.661 151.5 183.964 151.5V152.438ZM194.127 149.625L194.622 150.42C197.764 148.446 200.18 145.682 201.867 142.157L201.027 141.75L200.187 141.343C198.643 144.568 196.458 147.054 193.633 148.83L194.127 149.625ZM201.027 141.75L201.861 142.169C203.614 138.645 204.477 134.622 204.477 130.125H203.545H202.612C202.612 134.378 201.797 138.105 200.194 141.331L201.027 141.75ZM203.545 130.125H204.477C204.477 125.628 203.614 121.605 201.861 118.081L201.027 118.5L200.194 118.919C201.797 122.145 202.612 125.873 202.612 130.125H203.545ZM201.027 118.5L201.867 118.093C200.18 114.568 197.764 111.804 194.622 109.83L194.127 110.625L193.633 111.42C196.458 113.196 198.643 115.682 200.187 118.907L201.027 118.5ZM194.127 110.625L194.629 109.835C191.541 107.853 187.975 106.875 183.964 106.875V107.813V108.75C187.661 108.75 190.87 109.647 193.626 111.415L194.127 110.625ZM183.964 107.813V106.875C179.953 106.875 176.359 107.853 173.213 109.83L173.708 110.625L174.202 111.42C177.023 109.647 180.268 108.75 183.964 108.75V107.813ZM173.708 110.625L173.206 109.835C170.131 111.808 167.721 114.567 165.974 118.081L166.808 118.5L167.641 118.919C169.252 115.683 171.442 113.192 174.209 111.415L173.708 110.625ZM166.808 118.5L165.968 118.093C164.281 121.614 163.451 125.633 163.451 130.125H164.383H165.316C165.316 125.867 166.102 122.136 167.648 118.907L166.808 118.5ZM164.383 130.125H163.451C163.451 134.618 164.281 138.636 165.968 142.157L166.808 141.75L167.648 141.343C166.102 138.114 165.316 134.383 165.316 130.125H164.383ZM166.808 141.75L165.974 142.169C167.721 145.683 170.131 148.442 173.206 150.415L173.708 149.625L174.209 148.835C171.442 147.058 169.252 144.567 167.641 141.331L166.808 141.75ZM173.708 149.625L173.213 150.42C176.359 152.397 179.953 153.375 183.964 153.375V152.438V151.5C180.268 151.5 177.023 150.603 174.202 148.83L173.708 149.625Z" fill="#FAFAFA"/>
</g>
<path d="M134.734 210H131.004C130.747 210 130.538 209.79 130.538 209.531V205.781C130.538 205.523 130.747 205.312 131.004 205.312H134.734C134.991 205.312 135.2 205.523 135.2 205.781V209.531C135.2 209.79 134.991 210 134.734 210Z" fill="#121212" stroke="#FAFAFA"/>
<path d="M166.435 210H162.705C162.448 210 162.239 209.79 162.239 209.531V205.781C162.239 205.523 162.448 205.312 162.705 205.312H166.435C166.692 205.312 166.901 205.523 166.901 205.781V209.531C166.901 209.79 166.692 210 166.435 210Z" fill="#121212" stroke="#FAFAFA"/>
<path d="M166.435 169.688H162.705C162.448 169.688 162.239 169.477 162.239 169.219V165.469C162.239 165.21 162.448 165 162.705 165H166.435C166.692 165 166.901 165.21 166.901 165.469V169.219C166.901 169.477 166.692 169.688 166.435 169.688Z" fill="#121212" stroke="#FAFAFA"/>
<path d="M202.799 185.625H194.408C194.15 185.625 193.941 185.415 193.941 185.156V176.719C193.941 176.46 194.15 176.25 194.408 176.25H202.799C203.057 176.25 203.266 176.46 203.266 176.719V185.156C203.266 185.415 203.057 185.625 202.799 185.625Z" fill="#121212" stroke="#FAFAFA" stroke-width="2"/>
<path d="M237.298 133.125H233.569C233.311 133.125 233.103 132.915 233.103 132.656V128.906C233.103 128.648 233.311 128.438 233.569 128.438H237.298C237.556 128.438 237.765 128.648 237.765 128.906V132.656C237.765 132.915 237.556 133.125 237.298 133.125Z" fill="#121212" stroke="#FAFAFA"/>
<path d="M200.002 81.5625H196.273C196.016 81.5625 195.807 81.3526 195.807 81.0938V77.3438C195.807 77.0849 196.016 76.875 196.273 76.875H200.002C200.26 76.875 200.469 77.0849 200.469 77.3438V81.0938C200.469 81.3526 200.26 81.5625 200.002 81.5625Z" fill="#121212" stroke="#FAFAFA"/>
<path d="M166.435 84.375H162.705C162.448 84.375 162.239 84.1651 162.239 83.9062V80.1562C162.239 79.8974 162.448 79.6875 162.705 79.6875H166.435C166.692 79.6875 166.901 79.8974 166.901 80.1562V83.9062C166.901 84.1651 166.692 84.375 166.435 84.375Z" fill="#121212" stroke="#FAFAFA"/>
<path d="M166.435 95.625H162.705C162.448 95.625 162.239 95.415 162.239 95.1562V91.4062C162.239 91.1474 162.448 90.9375 162.705 90.9375H166.435C166.692 90.9375 166.901 91.1474 166.901 91.4062V95.1562C166.901 95.415 166.692 95.625 166.435 95.625Z" fill="#121212" stroke="#FAFAFA"/>
<path d="M134.734 84.375H131.004C130.747 84.375 130.538 84.1651 130.538 83.9062V80.1562C130.538 79.8974 130.747 79.6875 131.004 79.6875H134.734C134.991 79.6875 135.2 79.8974 135.2 80.1562V83.9062C135.2 84.1651 134.991 84.375 134.734 84.375Z" fill="#121212" stroke="#FAFAFA"/>
<path d="M134.734 133.125H131.004C130.747 133.125 130.538 132.915 130.538 132.656V128.906C130.538 128.648 130.747 128.438 131.004 128.438H134.734C134.991 128.438 135.2 128.648 135.2 128.906V132.656C135.2 132.915 134.991 133.125 134.734 133.125Z" fill="#121212" stroke="#FAFAFA"/>
<mask id="mask1_386_77" style="mask-type:luminance" maskUnits="userSpaceOnUse" x="196" y="178" width="27" height="27">
<path d="M222.891 202.906L221.385 178.125L196.739 179.639L198.245 204.42L222.891 202.906Z" fill="white"/>
</mask>
<g mask="url(#mask1_386_77)">
<path fill-rule="evenodd" clip-rule="evenodd" d="M221.393 194.675C221.468 194.743 221.531 194.824 221.575 194.916C221.62 195.008 221.646 195.107 221.652 195.209C221.658 195.312 221.644 195.413 221.612 195.509C221.578 195.606 221.527 195.695 221.459 195.772L215.674 202.346C215.607 202.422 215.526 202.484 215.434 202.529C215.343 202.574 215.244 202.6 215.143 202.606C215.041 202.613 214.884 202.606 214.844 202.565C214.748 202.532 214.594 202.421 214.519 202.353L211.475 199.647L206.293 198.676C205.899 198.602 205.53 198.427 205.224 198.166C204.917 197.907 204.683 197.57 204.544 197.191L198.789 181.463L215.018 185.292C215.408 185.384 215.767 185.577 216.062 185.85C216.356 186.124 216.574 186.471 216.695 186.855L218.282 191.908L221.393 194.675ZM216.744 192.163L215.224 187.323C215.183 187.195 215.11 187.079 215.012 186.988C214.913 186.896 214.793 186.832 214.662 186.801L201.227 183.631L205.993 196.657C206.039 196.783 206.117 196.893 206.219 196.98C206.321 197.067 206.443 197.125 206.575 197.149L211.539 198.078L216.744 192.163Z" fill="#FAFAFA"/>
<path d="M205.04 197.103L199.842 183.166C199.711 182.814 200.022 182.459 200.385 182.544L215.147 186.036C215.297 186.072 215.42 186.18 215.475 186.325L217.613 191.914C217.677 192.081 217.641 192.271 217.52 192.402L211.837 198.555C211.725 198.676 211.558 198.728 211.398 198.693L205.379 197.397C205.224 197.364 205.096 197.253 205.04 197.103Z" fill="#121212" stroke="#FAFAFA" stroke-width="0.5"/>
<path fill-rule="evenodd" clip-rule="evenodd" d="M201.466 184.289L208.305 192.04C208.317 192.346 208.42 192.643 208.599 192.891C208.779 193.139 209.027 193.328 209.314 193.434C209.6 193.54 209.911 193.559 210.208 193.486C210.504 193.414 210.774 193.256 210.981 193.03C211.188 192.805 211.324 192.523 211.372 192.219C211.418 191.916 211.375 191.606 211.248 191.327C211.12 191.049 210.913 190.814 210.652 190.654C210.392 190.494 210.089 190.415 209.785 190.427L201.554 184.193L201.42 184.158L201.466 184.289Z" fill="#FAFAFA"/>
</g>
<mask id="path-21-outside-1_386_77" maskUnits="userSpaceOnUse" x="457" y="191" width="144" height="19" fill="black">
<rect fill="white" x="457" y="191" width="144" height="19"/>
<path d="M468.463 203.8C468.463 205.16 467.983 206.23 467.023 207.01C466.063 207.77 464.763 208.15 463.123 208.15C461.323 208.15 459.823 207.85 458.623 207.25V204.46C460.023 205.32 461.473 205.75 462.973 205.75C463.753 205.75 464.353 205.59 464.773 205.27C465.213 204.95 465.433 204.53 465.433 204.01C465.433 203.57 465.263 203.18 464.923 202.84C464.583 202.48 464.233 202.22 463.873 202.06C463.533 201.88 462.943 201.61 462.103 201.25C459.723 200.27 458.533 198.83 458.533 196.93C458.533 195.59 459.033 194.54 460.033 193.78C461.033 193.02 462.283 192.64 463.783 192.64C465.423 192.64 466.703 192.86 467.623 193.3V195.97C466.643 195.39 465.383 195.1 463.843 195.1C463.143 195.1 462.583 195.26 462.163 195.58C461.763 195.9 461.563 196.32 461.563 196.84C461.563 196.98 461.573 197.12 461.593 197.26C461.633 197.38 461.693 197.51 461.773 197.65C461.853 197.77 461.923 197.88 461.983 197.98C462.063 198.06 462.183 198.15 462.343 198.25C462.503 198.35 462.623 198.44 462.703 198.52C462.803 198.58 462.953 198.66 463.153 198.76C463.373 198.86 463.533 198.94 463.633 199C463.733 199.04 463.903 199.12 464.143 199.24C464.403 199.34 464.583 199.41 464.683 199.45C465.863 199.97 466.783 200.56 467.443 201.22C468.123 201.86 468.463 202.72 468.463 203.8ZM491.411 208H488.471V205.39C487.671 207.25 486.091 208.18 483.731 208.18C482.231 208.18 481.041 207.74 480.161 206.86C479.281 205.96 478.841 204.73 478.841 203.17V192.79H481.811V202.45C481.811 203.49 482.061 204.29 482.561 204.85C483.081 205.39 483.791 205.66 484.691 205.66C485.831 205.66 486.741 205.26 487.421 204.46C488.121 203.66 488.471 202.53 488.471 201.07V192.79H491.411V208ZM513.785 207.4C512.805 208 511.555 208.3 510.035 208.3C507.655 208.3 505.755 207.55 504.335 206.05C502.915 204.55 502.205 202.68 502.205 200.44C502.205 198.26 502.915 196.4 504.335 194.86C505.775 193.3 507.715 192.52 510.155 192.52C511.475 192.52 512.685 192.8 513.785 193.36V196.06C512.805 195.44 511.695 195.13 510.455 195.13C508.875 195.13 507.605 195.63 506.645 196.63C505.705 197.63 505.235 198.91 505.235 200.47C505.275 202.01 505.745 203.28 506.645 204.28C507.545 205.26 508.805 205.75 510.425 205.75C511.625 205.75 512.745 205.42 513.785 204.76V207.4ZM535.406 207.4C534.426 208 533.176 208.3 531.656 208.3C529.276 208.3 527.376 207.55 525.956 206.05C524.536 204.55 523.826 202.68 523.826 200.44C523.826 198.26 524.536 196.4 525.956 194.86C527.396 193.3 529.336 192.52 531.776 192.52C533.096 192.52 534.306 192.8 535.406 193.36V196.06C534.426 195.44 533.316 195.13 532.076 195.13C530.496 195.13 529.226 195.63 528.266 196.63C527.326 197.63 526.856 198.91 526.856 200.47C526.896 202.01 527.366 203.28 528.266 204.28C529.166 205.26 530.426 205.75 532.046 205.75C533.246 205.75 534.366 205.42 535.406 204.76V207.4ZM557.627 207.19C556.507 207.83 555.027 208.15 553.187 208.15C550.827 208.15 548.947 207.44 547.547 206.02C546.147 204.6 545.447 202.74 545.447 200.44C545.447 198 546.087 196.09 547.367 194.71C548.647 193.31 550.277 192.61 552.257 192.61C554.197 192.61 555.737 193.22 556.877 194.44C558.017 195.64 558.587 197.38 558.587 199.66C558.587 200.28 558.527 200.93 558.407 201.61H548.417C548.617 202.93 549.177 203.94 550.097 204.64C551.017 205.34 552.177 205.69 553.577 205.69C555.197 205.69 556.547 205.31 557.627 204.55V207.19ZM552.317 195.04C551.317 195.04 550.457 195.41 549.737 196.15C549.017 196.87 548.567 197.92 548.387 199.3H555.737V198.76C555.697 197.62 555.387 196.72 554.807 196.06C554.227 195.38 553.397 195.04 552.317 195.04ZM579.059 203.8C579.059 205.16 578.579 206.23 577.619 207.01C576.659 207.77 575.359 208.15 573.719 208.15C571.919 208.15 570.419 207.85 569.219 207.25V204.46C570.619 205.32 572.069 205.75 573.569 205.75C574.349 205.75 574.949 205.59 575.369 205.27C575.809 204.95 576.029 204.53 576.029 204.01C576.029 203.57 575.859 203.18 575.519 202.84C575.179 202.48 574.829 202.22 574.469 202.06C574.129 201.88 573.539 201.61 572.699 201.25C570.319 200.27 569.129 198.83 569.129 196.93C569.129 195.59 569.629 194.54 570.629 193.78C571.629 193.02 572.879 192.64 574.379 192.64C576.019 192.64 577.299 192.86 578.219 193.3V195.97C577.239 195.39 575.979 195.1 574.439 195.1C573.739 195.1 573.179 195.26 572.759 195.58C572.359 195.9 572.159 196.32 572.159 196.84C572.159 196.98 572.169 197.12 572.189 197.26C572.229 197.38 572.289 197.51 572.369 197.65C572.449 197.77 572.519 197.88 572.579 197.98C572.659 198.06 572.779 198.15 572.939 198.25C573.099 198.35 573.219 198.44 573.299 198.52C573.399 198.58 573.549 198.66 573.749 198.76C573.969 198.86 574.129 198.94 574.229 199C574.329 199.04 574.499 199.12 574.739 199.24C574.999 199.34 575.179 199.41 575.279 199.45C576.459 199.97 577.379 200.56 578.039 201.22C578.719 201.86 579.059 202.72 579.059 203.8ZM599.127 203.8C599.127 205.16 598.647 206.23 597.687 207.01C596.727 207.77 595.427 208.15 593.787 208.15C591.987 208.15 590.487 207.85 589.287 207.25V204.46C590.687 205.32 592.137 205.75 593.637 205.75C594.417 205.75 595.017 205.59 595.437 205.27C595.877 204.95 596.097 204.53 596.097 204.01C596.097 203.57 595.927 203.18 595.587 202.84C595.247 202.48 594.897 202.22 594.537 202.06C594.197 201.88 593.607 201.61 592.767 201.25C590.387 200.27 589.197 198.83 589.197 196.93C589.197 195.59 589.697 194.54 590.697 193.78C591.697 193.02 592.947 192.64 594.447 192.64C596.087 192.64 597.367 192.86 598.287 193.3V195.97C597.307 195.39 596.047 195.1 594.507 195.1C593.807 195.1 593.247 195.26 592.827 195.58C592.427 195.9 592.227 196.32 592.227 196.84C592.227 196.98 592.237 197.12 592.257 197.26C592.297 197.38 592.357 197.51 592.437 197.65C592.517 197.77 592.587 197.88 592.647 197.98C592.727 198.06 592.847 198.15 593.007 198.25C593.167 198.35 593.287 198.44 593.367 198.52C593.467 198.58 593.617 198.66 593.817 198.76C594.037 198.86 594.197 198.94 594.297 199C594.397 199.04 594.567 199.12 594.807 199.24C595.067 199.34 595.247 199.41 595.347 199.45C596.527 199.97 597.447 200.56 598.107 201.22C598.787 201.86 599.127 202.72 599.127 203.8Z"/>
</mask>
<path d="M468.463 203.8C468.463 205.16 467.983 206.23 467.023 207.01C466.063 207.77 464.763 208.15 463.123 208.15C461.323 208.15 459.823 207.85 458.623 207.25V204.46C460.023 205.32 461.473 205.75 462.973 205.75C463.753 205.75 464.353 205.59 464.773 205.27C465.213 204.95 465.433 204.53 465.433 204.01C465.433 203.57 465.263 203.18 464.923 202.84C464.583 202.48 464.233 202.22 463.873 202.06C463.533 201.88 462.943 201.61 462.103 201.25C459.723 200.27 458.533 198.83 458.533 196.93C458.533 195.59 459.033 194.54 460.033 193.78C461.033 193.02 462.283 192.64 463.783 192.64C465.423 192.64 466.703 192.86 467.623 193.3V195.97C466.643 195.39 465.383 195.1 463.843 195.1C463.143 195.1 462.583 195.26 462.163 195.58C461.763 195.9 461.563 196.32 461.563 196.84C461.563 196.98 461.573 197.12 461.593 197.26C461.633 197.38 461.693 197.51 461.773 197.65C461.853 197.77 461.923 197.88 461.983 197.98C462.063 198.06 462.183 198.15 462.343 198.25C462.503 198.35 462.623 198.44 462.703 198.52C462.803 198.58 462.953 198.66 463.153 198.76C463.373 198.86 463.533 198.94 463.633 199C463.733 199.04 463.903 199.12 464.143 199.24C464.403 199.34 464.583 199.41 464.683 199.45C465.863 199.97 466.783 200.56 467.443 201.22C468.123 201.86 468.463 202.72 468.463 203.8ZM491.411 208H488.471V205.39C487.671 207.25 486.091 208.18 483.731 208.18C482.231 208.18 481.041 207.74 480.161 206.86C479.281 205.96 478.841 204.73 478.841 203.17V192.79H481.811V202.45C481.811 203.49 482.061 204.29 482.561 204.85C483.081 205.39 483.791 205.66 484.691 205.66C485.831 205.66 486.741 205.26 487.421 204.46C488.121 203.66 488.471 202.53 488.471 201.07V192.79H491.411V208ZM513.785 207.4C512.805 208 511.555 208.3 510.035 208.3C507.655 208.3 505.755 207.55 504.335 206.05C502.915 204.55 502.205 202.68 502.205 200.44C502.205 198.26 502.915 196.4 504.335 194.86C505.775 193.3 507.715 192.52 510.155 192.52C511.475 192.52 512.685 192.8 513.785 193.36V196.06C512.805 195.44 511.695 195.13 510.455 195.13C508.875 195.13 507.605 195.63 506.645 196.63C505.705 197.63 505.235 198.91 505.235 200.47C505.275 202.01 505.745 203.28 506.645 204.28C507.545 205.26 508.805 205.75 510.425 205.75C511.625 205.75 512.745 205.42 513.785 204.76V207.4ZM535.406 207.4C534.426 208 533.176 208.3 531.656 208.3C529.276 208.3 527.376 207.55 525.956 206.05C524.536 204.55 523.826 202.68 523.826 200.44C523.826 198.26 524.536 196.4 525.956 194.86C527.396 193.3 529.336 192.52 531.776 192.52C533.096 192.52 534.306 192.8 535.406 193.36V196.06C534.426 195.44 533.316 195.13 532.076 195.13C530.496 195.13 529.226 195.63 528.266 196.63C527.326 197.63 526.856 198.91 526.856 200.47C526.896 202.01 527.366 203.28 528.266 204.28C529.166 205.26 530.426 205.75 532.046 205.75C533.246 205.75 534.366 205.42 535.406 204.76V207.4ZM557.627 207.19C556.507 207.83 555.027 208.15 553.187 208.15C550.827 208.15 548.947 207.44 547.547 206.02C546.147 204.6 545.447 202.74 545.447 200.44C545.447 198 546.087 196.09 547.367 194.71C548.647 193.31 550.277 192.61 552.257 192.61C554.197 192.61 555.737 193.22 556.877 194.44C558.017 195.64 558.587 197.38 558.587 199.66C558.587 200.28 558.527 200.93 558.407 201.61H548.417C548.617 202.93 549.177 203.94 550.097 204.64C551.017 205.34 552.177 205.69 553.577 205.69C555.197 205.69 556.547 205.31 557.627 204.55V207.19ZM552.317 195.04C551.317 195.04 550.457 195.41 549.737 196.15C549.017 196.87 548.567 197.92 548.387 199.3H555.737V198.76C555.697 197.62 555.387 196.72 554.807 196.06C554.227 195.38 553.397 195.04 552.317 195.04ZM579.059 203.8C579.059 205.16 578.579 206.23 577.619 207.01C576.659 207.77 575.359 208.15 573.719 208.15C571.919 208.15 570.419 207.85 569.219 207.25V204.46C570.619 205.32 572.069 205.75 573.569 205.75C574.349 205.75 574.949 205.59 575.369 205.27C575.809 204.95 576.029 204.53 576.029 204.01C576.029 203.57 575.859 203.18 575.519 202.84C575.179 202.48 574.829 202.22 574.469 202.06C574.129 201.88 573.539 201.61 572.699 201.25C570.319 200.27 569.129 198.83 569.129 196.93C569.129 195.59 569.629 194.54 570.629 193.78C571.629 193.02 572.879 192.64 574.379 192.64C576.019 192.64 577.299 192.86 578.219 193.3V195.97C577.239 195.39 575.979 195.1 574.439 195.1C573.739 195.1 573.179 195.26 572.759 195.58C572.359 195.9 572.159 196.32 572.159 196.84C572.159 196.98 572.169 197.12 572.189 197.26C572.229 197.38 572.289 197.51 572.369 197.65C572.449 197.77 572.519 197.88 572.579 197.98C572.659 198.06 572.779 198.15 572.939 198.25C573.099 198.35 573.219 198.44 573.299 198.52C573.399 198.58 573.549 198.66 573.749 198.76C573.969 198.86 574.129 198.94 574.229 199C574.329 199.04 574.499 199.12 574.739 199.24C574.999 199.34 575.179 199.41 575.279 199.45C576.459 199.97 577.379 200.56 578.039 201.22C578.719 201.86 579.059 202.72 579.059 203.8ZM599.127 203.8C599.127 205.16 598.647 206.23 597.687 207.01C596.727 207.77 595.427 208.15 593.787 208.15C591.987 208.15 590.487 207.85 589.287 207.25V204.46C590.687 205.32 592.137 205.75 593.637 205.75C594.417 205.75 595.017 205.59 595.437 205.27C595.877 204.95 596.097 204.53 596.097 204.01C596.097 203.57 595.927 203.18 595.587 202.84C595.247 202.48 594.897 202.22 594.537 202.06C594.197 201.88 593.607 201.61 592.767 201.25C590.387 200.27 589.197 198.83 589.197 196.93C589.197 195.59 589.697 194.54 590.697 193.78C591.697 193.02 592.947 192.64 594.447 192.64C596.087 192.64 597.367 192.86 598.287 193.3V195.97C597.307 195.39 596.047 195.1 594.507 195.1C593.807 195.1 593.247 195.26 592.827 195.58C592.427 195.9 592.227 196.32 592.227 196.84C592.227 196.98 592.237 197.12 592.257 197.26C592.297 197.38 592.357 197.51 592.437 197.65C592.517 197.77 592.587 197.88 592.647 197.98C592.727 198.06 592.847 198.15 593.007 198.25C593.167 198.35 593.287 198.44 593.367 198.52C593.467 198.58 593.617 198.66 593.817 198.76C594.037 198.86 594.197 198.94 594.297 199C594.397 199.04 594.567 199.12 594.807 199.24C595.067 199.34 595.247 199.41 595.347 199.45C596.527 199.97 597.447 200.56 598.107 201.22C598.787 201.86 599.127 202.72 599.127 203.8Z" fill="#121212"/>
<path d="M467.023 207.01L467.644 207.794L467.653 207.786L467.023 207.01ZM458.623 207.25H457.623V207.868L458.176 208.144L458.623 207.25ZM458.623 204.46L459.146 203.608L457.623 202.672V204.46H458.623ZM464.773 205.27L464.185 204.461L464.176 204.468L464.167 204.475L464.773 205.27ZM464.923 202.84L464.196 203.527L464.206 203.537L464.216 203.547L464.923 202.84ZM463.873 202.06L463.405 202.944L463.435 202.96L463.467 202.974L463.873 202.06ZM462.103 201.25L462.497 200.331L462.49 200.328L462.484 200.325L462.103 201.25ZM460.033 193.78L459.428 192.984V192.984L460.033 193.78ZM467.623 193.3H468.623V192.67L468.054 192.398L467.623 193.3ZM467.623 195.97L467.113 196.831L468.623 197.724V195.97H467.623ZM462.163 195.58L461.557 194.785L461.547 194.792L461.538 194.799L462.163 195.58ZM461.593 197.26L460.603 197.401L460.616 197.491L460.644 197.576L461.593 197.26ZM461.773 197.65L460.905 198.146L460.922 198.176L460.941 198.205L461.773 197.65ZM461.983 197.98L461.125 198.494L461.189 198.6L461.276 198.687L461.983 197.98ZM462.703 198.52L461.996 199.227L462.083 199.314L462.188 199.377L462.703 198.52ZM463.153 198.76L462.706 199.654L462.722 199.663L462.739 199.67L463.153 198.76ZM463.633 199L463.118 199.857L463.187 199.899L463.261 199.928L463.633 199ZM464.143 199.24L463.696 200.134L463.739 200.156L463.784 200.173L464.143 199.24ZM464.683 199.45L465.086 198.535L465.07 198.528L465.054 198.522L464.683 199.45ZM467.443 201.22L466.736 201.927L466.746 201.938L466.757 201.948L467.443 201.22ZM468.463 203.8H467.463C467.463 204.893 467.093 205.664 466.392 206.234L467.023 207.01L467.653 207.786C468.872 206.796 469.463 205.427 469.463 203.8H468.463ZM467.023 207.01L466.402 206.226C465.671 206.805 464.614 207.15 463.123 207.15V208.15V209.15C464.912 209.15 466.455 208.735 467.644 207.794L467.023 207.01ZM463.123 208.15V207.15C461.427 207.15 460.092 206.867 459.07 206.356L458.623 207.25L458.176 208.144C459.554 208.833 461.218 209.15 463.123 209.15V208.15ZM458.623 207.25H459.623V204.46H458.623H457.623V207.25H458.623ZM458.623 204.46L458.099 205.312C459.641 206.259 461.271 206.75 462.973 206.75V205.75V204.75C461.675 204.75 460.404 204.381 459.146 203.608L458.623 204.46ZM462.973 205.75V206.75C463.872 206.75 464.719 206.568 465.379 206.065L464.773 205.27L464.167 204.475C463.987 204.612 463.634 204.75 462.973 204.75V205.75ZM464.773 205.27L465.361 206.079C466.046 205.581 466.433 204.867 466.433 204.01H465.433H464.433C464.433 204.193 464.38 204.319 464.185 204.461L464.773 205.27ZM465.433 204.01H466.433C466.433 203.279 466.138 202.641 465.63 202.133L464.923 202.84L464.216 203.547C464.387 203.719 464.433 203.861 464.433 204.01H465.433ZM464.923 202.84L465.65 202.153C465.241 201.721 464.787 201.372 464.279 201.146L463.873 202.06L463.467 202.974C463.679 203.068 463.924 203.239 464.196 203.527L464.923 202.84ZM463.873 202.06L464.341 201.176C463.961 200.975 463.337 200.691 462.497 200.331L462.103 201.25L461.709 202.169C462.548 202.529 463.105 202.785 463.405 202.944L463.873 202.06ZM462.103 201.25L462.484 200.325C461.391 199.875 460.655 199.353 460.196 198.798C459.752 198.261 459.533 197.652 459.533 196.93H458.533H457.533C457.533 198.108 457.909 199.169 458.654 200.072C459.386 200.957 460.435 201.645 461.722 202.175L462.103 201.25ZM458.533 196.93H459.533C459.533 195.878 459.905 195.133 460.638 194.576L460.033 193.78L459.428 192.984C458.16 193.947 457.533 195.302 457.533 196.93H458.533ZM460.033 193.78L460.638 194.576C461.432 193.973 462.458 193.64 463.783 193.64V192.64V191.64C462.108 191.64 460.634 192.067 459.428 192.984L460.033 193.78ZM463.783 192.64V193.64C465.354 193.64 466.464 193.854 467.191 194.202L467.623 193.3L468.054 192.398C466.942 191.866 465.492 191.64 463.783 191.64V192.64ZM467.623 193.3H466.623V195.97H467.623H468.623V193.3H467.623ZM467.623 195.97L468.132 195.109C466.953 194.411 465.501 194.1 463.843 194.1V195.1V196.1C465.264 196.1 466.333 196.369 467.113 196.831L467.623 195.97ZM463.843 195.1V194.1C462.995 194.1 462.2 194.294 461.557 194.785L462.163 195.58L462.769 196.375C462.966 196.226 463.291 196.1 463.843 196.1V195.1ZM462.163 195.58L461.538 194.799C460.897 195.312 460.563 196.022 460.563 196.84H461.563H462.563C462.563 196.618 462.629 196.488 462.788 196.361L462.163 195.58ZM461.563 196.84H460.563C460.563 197.028 460.576 197.215 460.603 197.401L461.593 197.26L462.583 197.119C462.569 197.025 462.563 196.932 462.563 196.84H461.563ZM461.593 197.26L460.644 197.576C460.71 197.773 460.8 197.964 460.905 198.146L461.773 197.65L462.641 197.154C462.585 197.056 462.556 196.987 462.541 196.944L461.593 197.26ZM461.773 197.65L460.941 198.205C461.014 198.314 461.075 198.411 461.125 198.494L461.983 197.98L462.84 197.466C462.771 197.349 462.692 197.226 462.605 197.095L461.773 197.65ZM461.983 197.98L461.276 198.687C461.433 198.844 461.625 198.981 461.813 199.098L462.343 198.25L462.873 197.402C462.811 197.363 462.765 197.332 462.733 197.307C462.699 197.282 462.688 197.271 462.69 197.273L461.983 197.98ZM462.343 198.25L461.813 199.098C461.875 199.137 461.92 199.168 461.953 199.192C461.986 199.218 461.998 199.229 461.996 199.227L462.703 198.52L463.41 197.813C463.253 197.656 463.061 197.519 462.873 197.402L462.343 198.25ZM462.703 198.52L462.188 199.377C462.322 199.458 462.499 199.551 462.706 199.654L463.153 198.76L463.6 197.866C463.406 197.769 463.284 197.702 463.217 197.663L462.703 198.52ZM463.153 198.76L462.739 199.67C462.953 199.768 463.07 199.828 463.118 199.857L463.633 199L464.147 198.143C463.996 198.052 463.793 197.952 463.567 197.85L463.153 198.76ZM463.633 199L463.261 199.928C463.318 199.951 463.455 200.014 463.696 200.134L464.143 199.24L464.59 198.346C464.351 198.226 464.147 198.129 464.004 198.072L463.633 199ZM464.143 199.24L463.784 200.173C464.044 200.273 464.218 200.341 464.311 200.378L464.683 199.45L465.054 198.522C464.947 198.479 464.761 198.407 464.502 198.307L464.143 199.24ZM464.683 199.45L464.28 200.365C465.386 200.853 466.19 201.381 466.736 201.927L467.443 201.22L468.15 200.513C467.376 199.739 466.339 199.087 465.086 198.535L464.683 199.45ZM467.443 201.22L466.757 201.948C467.205 202.369 467.463 202.949 467.463 203.8H468.463H469.463C469.463 202.491 469.041 201.351 468.128 200.492L467.443 201.22ZM491.411 208V209H492.411V208H491.411ZM488.471 208H487.471V209H488.471V208ZM488.471 205.39H489.471L487.553 204.995L488.471 205.39ZM480.161 206.86L479.446 207.559L479.454 207.567L480.161 206.86ZM478.841 192.79V191.79H477.841V192.79H478.841ZM481.811 192.79H482.811V191.79H481.811V192.79ZM482.561 204.85L481.815 205.516L481.828 205.53L481.841 205.544L482.561 204.85ZM487.421 204.46L486.669 203.801L486.664 203.807L486.659 203.812L487.421 204.46ZM488.471 192.79V191.79H487.471V192.79H488.471ZM491.411 192.79H492.411V191.79H491.411V192.79ZM491.411 208V207H488.471V208V209H491.411V208ZM488.471 208H489.471V205.39H488.471H487.471V208H488.471ZM488.471 205.39L487.553 204.995C487.227 205.751 486.767 206.275 486.179 206.621C485.581 206.973 484.783 207.18 483.731 207.18V208.18V209.18C485.039 209.18 486.212 208.922 487.193 208.344C488.186 207.76 488.915 206.889 489.39 205.785L488.471 205.39ZM483.731 208.18V207.18C482.438 207.18 481.523 206.808 480.868 206.153L480.161 206.86L479.454 207.567C480.559 208.672 482.024 209.18 483.731 209.18V208.18ZM480.161 206.86L480.876 206.161C480.22 205.49 479.841 204.535 479.841 203.17H478.841H477.841C477.841 204.925 478.342 206.43 479.446 207.559L480.161 206.86ZM478.841 203.17H479.841V192.79H478.841H477.841V203.17H478.841ZM478.841 192.79V193.79H481.811V192.79V191.79H478.841V192.79ZM481.811 192.79H480.811V202.45H481.811H482.811V192.79H481.811ZM481.811 202.45H480.811C480.811 203.641 481.098 204.713 481.815 205.516L482.561 204.85L483.307 204.184C483.024 203.867 482.811 203.339 482.811 202.45H481.811ZM482.561 204.85L481.841 205.544C482.587 206.318 483.578 206.66 484.691 206.66V205.66V204.66C484.004 204.66 483.576 204.462 483.281 204.156L482.561 204.85ZM484.691 205.66V206.66C486.096 206.66 487.295 206.152 488.183 205.108L487.421 204.46L486.659 203.812C486.187 204.368 485.566 204.66 484.691 204.66V205.66ZM487.421 204.46L488.174 205.119C489.084 204.078 489.471 202.682 489.471 201.07H488.471H487.471C487.471 202.378 487.158 203.242 486.669 203.801L487.421 204.46ZM488.471 201.07H489.471V192.79H488.471H487.471V201.07H488.471ZM488.471 192.79V193.79H491.411V192.79V191.79H488.471V192.79ZM491.411 192.79H490.411V208H491.411H492.411V192.79H491.411ZM513.785 207.4L514.307 208.253L514.785 207.96V207.4H513.785ZM504.335 206.05L505.061 205.363L504.335 206.05ZM504.335 194.86L503.6 194.182L503.599 194.182L504.335 194.86ZM513.785 193.36H514.785V192.747L514.238 192.469L513.785 193.36ZM513.785 196.06L513.25 196.905L514.785 197.876V196.06H513.785ZM506.645 196.63L505.923 195.937L505.916 195.945L506.645 196.63ZM505.235 200.47H504.235V200.483L504.235 200.496L505.235 200.47ZM506.645 204.28L505.901 204.949L505.908 204.956L506.645 204.28ZM513.785 204.76H514.785V202.941L513.249 203.916L513.785 204.76ZM513.785 207.4L513.262 206.547C512.483 207.025 511.428 207.3 510.035 207.3V208.3V209.3C511.681 209.3 513.127 208.975 514.307 208.253L513.785 207.4ZM510.035 208.3V207.3C507.884 207.3 506.263 206.632 505.061 205.363L504.335 206.05L503.608 206.737C505.247 208.468 507.426 209.3 510.035 209.3V208.3ZM504.335 206.05L505.061 205.363C503.832 204.065 503.205 202.448 503.205 200.44H502.205H501.205C501.205 202.912 501.997 205.035 503.608 206.737L504.335 206.05ZM502.205 200.44H503.205C503.205 198.5 503.828 196.885 505.07 195.538L504.335 194.86L503.599 194.182C502.002 195.915 501.205 198.02 501.205 200.44H502.205ZM504.335 194.86L505.069 195.538C506.291 194.215 507.948 193.52 510.155 193.52V192.52V191.52C507.481 191.52 505.258 192.385 503.6 194.182L504.335 194.86ZM510.155 192.52V193.52C511.328 193.52 512.381 193.768 513.331 194.251L513.785 193.36L514.238 192.469C512.988 191.832 511.621 191.52 510.155 191.52V192.52ZM513.785 193.36H512.785V196.06H513.785H514.785V193.36H513.785ZM513.785 196.06L514.319 195.215C513.168 194.487 511.87 194.13 510.455 194.13V195.13V196.13C511.519 196.13 512.441 196.393 513.25 196.905L513.785 196.06ZM510.455 195.13V194.13C508.644 194.13 507.099 194.713 505.923 195.937L506.645 196.63L507.366 197.323C508.11 196.547 509.105 196.13 510.455 196.13V195.13ZM506.645 196.63L505.916 195.945C504.778 197.156 504.235 198.693 504.235 200.47H505.235H506.235C506.235 199.127 506.632 198.104 507.373 197.315L506.645 196.63ZM505.235 200.47L504.235 200.496C504.28 202.237 504.819 203.747 505.901 204.949L506.645 204.28L507.388 203.611C506.67 202.813 506.269 201.783 506.234 200.444L505.235 200.47ZM506.645 204.28L505.908 204.956C507.038 206.187 508.59 206.75 510.425 206.75V205.75V204.75C509.019 204.75 508.051 204.333 507.381 203.604L506.645 204.28ZM510.425 205.75V206.75C511.82 206.75 513.125 206.363 514.32 205.604L513.785 204.76L513.249 203.916C512.365 204.477 511.43 204.75 510.425 204.75V205.75ZM513.785 204.76H512.785V207.4H513.785H514.785V204.76H513.785ZM535.406 207.4L535.928 208.253L536.406 207.96V207.4H535.406ZM525.956 206.05L526.682 205.363L525.956 206.05ZM525.956 194.86L525.221 194.182L525.221 194.182L525.956 194.86ZM535.406 193.36H536.406V192.747L535.859 192.469L535.406 193.36ZM535.406 196.06L534.871 196.905L536.406 197.876V196.06H535.406ZM528.266 196.63L527.544 195.937L527.537 195.945L528.266 196.63ZM526.856 200.47H525.856V200.483L525.856 200.496L526.856 200.47ZM528.266 204.28L527.522 204.949L527.529 204.956L528.266 204.28ZM535.406 204.76H536.406V202.941L534.87 203.916L535.406 204.76ZM535.406 207.4L534.884 206.547C534.104 207.025 533.049 207.3 531.656 207.3V208.3V209.3C533.302 209.3 534.748 208.975 535.928 208.253L535.406 207.4ZM531.656 208.3V207.3C529.505 207.3 527.884 206.632 526.682 205.363L525.956 206.05L525.229 206.737C526.868 208.468 529.047 209.3 531.656 209.3V208.3ZM525.956 206.05L526.682 205.363C525.453 204.065 524.826 202.448 524.826 200.44H523.826H522.826C522.826 202.912 523.618 205.035 525.229 206.737L525.956 206.05ZM523.826 200.44H524.826C524.826 198.5 525.449 196.885 526.691 195.538L525.956 194.86L525.221 194.182C523.623 195.915 522.826 198.02 522.826 200.44H523.826ZM525.956 194.86L526.691 195.538C527.912 194.215 529.569 193.52 531.776 193.52V192.52V191.52C529.102 191.52 526.879 192.385 525.221 194.182L525.956 194.86ZM531.776 192.52V193.52C532.949 193.52 534.002 193.768 534.952 194.251L535.406 193.36L535.859 192.469C534.609 191.832 533.242 191.52 531.776 191.52V192.52ZM535.406 193.36H534.406V196.06H535.406H536.406V193.36H535.406ZM535.406 196.06L535.94 195.215C534.789 194.487 533.491 194.13 532.076 194.13V195.13V196.13C533.14 196.13 534.062 196.393 534.871 196.905L535.406 196.06ZM532.076 195.13V194.13C530.265 194.13 528.72 194.713 527.544 195.937L528.266 196.63L528.987 197.323C529.731 196.547 530.726 196.13 532.076 196.13V195.13ZM528.266 196.63L527.537 195.945C526.399 197.156 525.856 198.693 525.856 200.47H526.856H527.856C527.856 199.127 528.253 198.104 528.994 197.315L528.266 196.63ZM526.856 200.47L525.856 200.496C525.901 202.237 526.44 203.747 527.522 204.949L528.266 204.28L529.009 203.611C528.291 202.813 527.89 201.783 527.855 200.444L526.856 200.47ZM528.266 204.28L527.529 204.956C528.659 206.187 530.212 206.75 532.046 206.75V205.75V204.75C530.64 204.75 529.673 204.333 529.002 203.604L528.266 204.28ZM532.046 205.75V206.75C533.441 206.75 534.746 206.363 535.942 205.604L535.406 204.76L534.87 203.916C533.986 204.477 533.051 204.75 532.046 204.75V205.75ZM535.406 204.76H534.406V207.4H535.406H536.406V204.76H535.406ZM557.627 207.19L558.123 208.058L558.627 207.77V207.19H557.627ZM547.547 206.02L546.835 206.722L547.547 206.02ZM547.367 194.71L548.1 195.39L548.105 195.385L547.367 194.71ZM556.877 194.44L556.146 195.123L556.152 195.129L556.877 194.44ZM558.407 201.61V202.61H559.246L559.392 201.784L558.407 201.61ZM548.417 201.61V200.61H547.254L547.428 201.76L548.417 201.61ZM557.627 204.55H558.627V202.624L557.051 203.732L557.627 204.55ZM549.737 196.15L550.444 196.857L550.454 196.847L549.737 196.15ZM548.387 199.3L547.395 199.171L547.248 200.3H548.387V199.3ZM555.737 199.3V200.3H556.737V199.3H555.737ZM555.737 198.76H556.737V198.742L556.736 198.725L555.737 198.76ZM554.807 196.06L554.046 196.709L554.051 196.715L554.056 196.72L554.807 196.06ZM557.627 207.19L557.131 206.322C556.213 206.846 554.923 207.15 553.187 207.15V208.15V209.15C555.131 209.15 556.801 208.814 558.123 208.058L557.627 207.19ZM553.187 208.15V207.15C551.042 207.15 549.437 206.513 548.259 205.318L547.547 206.02L546.835 206.722C548.457 208.367 550.612 209.15 553.187 209.15V208.15ZM547.547 206.02L548.259 205.318C547.072 204.114 546.447 202.521 546.447 200.44H545.447H544.447C544.447 202.959 545.222 205.086 546.835 206.722L547.547 206.02ZM545.447 200.44H546.447C546.447 198.175 547.038 196.535 548.1 195.39L547.367 194.71L546.634 194.03C545.136 195.645 544.447 197.825 544.447 200.44H545.447ZM547.367 194.71L548.105 195.385C549.186 194.202 550.544 193.61 552.257 193.61V192.61V191.61C550.01 191.61 548.107 192.418 546.629 194.035L547.367 194.71ZM552.257 192.61V193.61C553.969 193.61 555.226 194.138 556.146 195.123L556.877 194.44L557.607 193.757C556.247 192.302 554.425 191.61 552.257 191.61V192.61ZM556.877 194.44L556.152 195.129C557.058 196.082 557.587 197.538 557.587 199.66H558.587H559.587C559.587 197.222 558.976 195.198 557.602 193.751L556.877 194.44ZM558.587 199.66H557.587C557.587 200.216 557.533 200.807 557.422 201.436L558.407 201.61L559.392 201.784C559.521 201.053 559.587 200.344 559.587 199.66H558.587ZM558.407 201.61V200.61H548.417V201.61V202.61H558.407V201.61ZM548.417 201.61L547.428 201.76C547.661 203.294 548.332 204.554 549.491 205.436L550.097 204.64L550.702 203.844C550.021 203.326 549.573 202.566 549.406 201.46L548.417 201.61ZM550.097 204.64L549.491 205.436C550.62 206.294 552.005 206.69 553.577 206.69V205.69V204.69C552.348 204.69 551.414 204.386 550.702 203.844L550.097 204.64ZM553.577 205.69V206.69C555.355 206.69 556.919 206.271 558.202 205.368L557.627 204.55L557.051 203.732C556.175 204.349 555.038 204.69 553.577 204.69V205.69ZM557.627 204.55H556.627V207.19H557.627H558.627V204.55H557.627ZM552.317 195.04V194.04C551.037 194.04 549.921 194.526 549.02 195.453L549.737 196.15L550.454 196.847C550.992 196.294 551.596 196.04 552.317 196.04V195.04ZM549.737 196.15L549.03 195.443C548.105 196.367 547.593 197.651 547.395 199.171L548.387 199.3L549.378 199.429C549.54 198.189 549.928 197.373 550.444 196.857L549.737 196.15ZM548.387 199.3V200.3H555.737V199.3V198.3H548.387V199.3ZM555.737 199.3H556.737V198.76H555.737H554.737V199.3H555.737ZM555.737 198.76L556.736 198.725C556.691 197.424 556.331 196.279 555.558 195.4L554.807 196.06L554.056 196.72C554.443 197.161 554.703 197.816 554.737 198.795L555.737 198.76ZM554.807 196.06L555.568 195.411C554.758 194.462 553.623 194.04 552.317 194.04V195.04V196.04C553.171 196.04 553.695 196.298 554.046 196.709L554.807 196.06ZM577.619 207.01L578.239 207.794L578.249 207.786L577.619 207.01ZM569.219 207.25H568.219V207.868L568.771 208.144L569.219 207.25ZM569.219 204.46L569.742 203.608L568.219 202.672V204.46H569.219ZM575.369 205.27L574.78 204.461L574.771 204.468L574.762 204.475L575.369 205.27ZM575.519 202.84L574.792 203.527L574.801 203.537L574.811 203.547L575.519 202.84ZM574.469 202.06L574.001 202.944L574.031 202.96L574.062 202.974L574.469 202.06ZM572.699 201.25L573.092 200.331L573.086 200.328L573.079 200.325L572.699 201.25ZM570.629 193.78L570.023 192.984V192.984L570.629 193.78ZM578.219 193.3H579.219V192.67L578.65 192.398L578.219 193.3ZM578.219 195.97L577.709 196.831L579.219 197.724V195.97H578.219ZM572.759 195.58L572.152 194.785L572.143 194.792L572.134 194.799L572.759 195.58ZM572.189 197.26L571.199 197.401L571.211 197.491L571.24 197.576L572.189 197.26ZM572.369 197.65L571.5 198.146L571.517 198.176L571.536 198.205L572.369 197.65ZM572.579 197.98L571.721 198.494L571.784 198.6L571.871 198.687L572.579 197.98ZM573.299 198.52L572.591 199.227L572.678 199.314L572.784 199.377L573.299 198.52ZM573.749 198.76L573.301 199.654L573.318 199.663L573.335 199.67L573.749 198.76ZM574.229 199L573.714 199.857L573.783 199.899L573.857 199.928L574.229 199ZM574.739 199.24L574.291 200.134L574.334 200.156L574.38 200.173L574.739 199.24ZM575.279 199.45L575.682 198.535L575.666 198.528L575.65 198.522L575.279 199.45ZM578.039 201.22L577.331 201.927L577.342 201.938L577.353 201.948L578.039 201.22ZM579.059 203.8H578.059C578.059 204.893 577.689 205.664 576.988 206.234L577.619 207.01L578.249 207.786C579.468 206.796 580.059 205.427 580.059 203.8H579.059ZM577.619 207.01L576.998 206.226C576.266 206.805 575.21 207.15 573.719 207.15V208.15V209.15C575.508 209.15 577.051 208.735 578.239 207.794L577.619 207.01ZM573.719 208.15V207.15C572.023 207.15 570.688 206.867 569.666 206.356L569.219 207.25L568.771 208.144C570.149 208.833 571.814 209.15 573.719 209.15V208.15ZM569.219 207.25H570.219V204.46H569.219H568.219V207.25H569.219ZM569.219 204.46L568.695 205.312C570.237 206.259 571.866 206.75 573.569 206.75V205.75V204.75C572.271 204.75 571 204.381 569.742 203.608L569.219 204.46ZM573.569 205.75V206.75C574.467 206.75 575.315 206.568 575.975 206.065L575.369 205.27L574.762 204.475C574.582 204.612 574.23 204.75 573.569 204.75V205.75ZM575.369 205.27L575.957 206.079C576.641 205.581 577.029 204.867 577.029 204.01H576.029H575.029C575.029 204.193 574.976 204.319 574.78 204.461L575.369 205.27ZM576.029 204.01H577.029C577.029 203.279 576.734 202.641 576.226 202.133L575.519 202.84L574.811 203.547C574.983 203.719 575.029 203.861 575.029 204.01H576.029ZM575.519 202.84L576.246 202.153C575.837 201.721 575.382 201.372 574.875 201.146L574.469 202.06L574.062 202.974C574.275 203.068 574.52 203.239 574.792 203.527L575.519 202.84ZM574.469 202.06L574.936 201.176C574.557 200.975 573.933 200.691 573.092 200.331L572.699 201.25L572.305 202.169C573.144 202.529 573.7 202.785 574.001 202.944L574.469 202.06ZM572.699 201.25L573.079 200.325C571.987 199.875 571.25 199.353 570.792 198.798C570.348 198.261 570.129 197.652 570.129 196.93H569.129H568.129C568.129 198.108 568.504 199.169 569.25 200.072C569.982 200.957 571.031 201.645 572.318 202.175L572.699 201.25ZM569.129 196.93H570.129C570.129 195.878 570.501 195.133 571.234 194.576L570.629 193.78L570.023 192.984C568.756 193.947 568.129 195.302 568.129 196.93H569.129ZM570.629 193.78L571.234 194.576C572.028 193.973 573.053 193.64 574.379 193.64V192.64V191.64C572.704 191.64 571.229 192.067 570.023 192.984L570.629 193.78ZM574.379 192.64V193.64C575.95 193.64 577.059 193.854 577.787 194.202L578.219 193.3L578.65 192.398C577.538 191.866 576.087 191.64 574.379 191.64V192.64ZM578.219 193.3H577.219V195.97H578.219H579.219V193.3H578.219ZM578.219 195.97L578.728 195.109C577.549 194.411 576.097 194.1 574.439 194.1V195.1V196.1C575.86 196.1 576.928 196.369 577.709 196.831L578.219 195.97ZM574.439 195.1V194.1C573.591 194.1 572.796 194.294 572.152 194.785L572.759 195.58L573.365 196.375C573.561 196.226 573.886 196.1 574.439 196.1V195.1ZM572.759 195.58L572.134 194.799C571.492 195.312 571.159 196.022 571.159 196.84H572.159H573.159C573.159 196.618 573.225 196.488 573.383 196.361L572.759 195.58ZM572.159 196.84H571.159C571.159 197.028 571.172 197.215 571.199 197.401L572.189 197.26L573.178 197.119C573.165 197.025 573.159 196.932 573.159 196.84H572.159ZM572.189 197.26L571.24 197.576C571.305 197.773 571.396 197.964 571.5 198.146L572.369 197.65L573.237 197.154C573.181 197.056 573.152 196.987 573.137 196.944L572.189 197.26ZM572.369 197.65L571.536 198.205C571.61 198.314 571.671 198.411 571.721 198.494L572.579 197.98L573.436 197.466C573.366 197.349 573.287 197.226 573.201 197.095L572.369 197.65ZM572.579 197.98L571.871 198.687C572.029 198.844 572.221 198.981 572.409 199.098L572.939 198.25L573.469 197.402C573.407 197.363 573.361 197.332 573.329 197.307C573.295 197.282 573.283 197.271 573.286 197.273L572.579 197.98ZM572.939 198.25L572.409 199.098C572.47 199.137 572.516 199.168 572.549 199.192C572.582 199.218 572.594 199.229 572.591 199.227L573.299 198.52L574.006 197.813C573.848 197.656 573.656 197.519 573.469 197.402L572.939 198.25ZM573.299 198.52L572.784 199.377C572.918 199.458 573.095 199.551 573.301 199.654L573.749 198.76L574.196 197.866C574.002 197.769 573.879 197.702 573.813 197.663L573.299 198.52ZM573.749 198.76L573.335 199.67C573.549 199.768 573.665 199.828 573.714 199.857L574.229 199L574.743 198.143C574.592 198.052 574.388 197.952 574.162 197.85L573.749 198.76ZM574.229 199L573.857 199.928C573.914 199.951 574.05 200.014 574.291 200.134L574.739 199.24L575.186 198.346C574.947 198.226 574.743 198.129 574.6 198.072L574.229 199ZM574.739 199.24L574.38 200.173C574.64 200.273 574.814 200.341 574.907 200.378L575.279 199.45L575.65 198.522C575.543 198.479 575.357 198.407 575.098 198.307L574.739 199.24ZM575.279 199.45L574.875 200.365C575.982 200.853 576.785 201.381 577.331 201.927L578.039 201.22L578.746 200.513C577.972 199.739 576.935 199.087 575.682 198.535L575.279 199.45ZM578.039 201.22L577.353 201.948C577.8 202.369 578.059 202.949 578.059 203.8H579.059H580.059C580.059 202.491 579.637 201.351 578.724 200.492L578.039 201.22ZM597.687 207.01L598.308 207.794L598.317 207.786L597.687 207.01ZM589.287 207.25H588.287V207.868L588.84 208.144L589.287 207.25ZM589.287 204.46L589.81 203.608L588.287 202.672V204.46H589.287ZM595.437 205.27L594.849 204.461L594.84 204.468L594.831 204.475L595.437 205.27ZM595.587 202.84L594.86 203.527L594.87 203.537L594.88 203.547L595.587 202.84ZM594.537 202.06L594.069 202.944L594.099 202.96L594.131 202.974L594.537 202.06ZM592.767 201.25L593.161 200.331L593.154 200.328L593.148 200.325L592.767 201.25ZM590.697 193.78L590.092 192.984V192.984L590.697 193.78ZM598.287 193.3H599.287V192.67L598.718 192.398L598.287 193.3ZM598.287 195.97L597.778 196.831L599.287 197.724V195.97H598.287ZM592.827 195.58L592.221 194.785L592.211 194.792L592.202 194.799L592.827 195.58ZM592.257 197.26L591.267 197.401L591.28 197.491L591.308 197.576L592.257 197.26ZM592.437 197.65L591.569 198.146L591.586 198.176L591.605 198.205L592.437 197.65ZM592.647 197.98L591.789 198.494L591.853 198.6L591.94 198.687L592.647 197.98ZM593.367 198.52L592.66 199.227L592.747 199.314L592.852 199.377L593.367 198.52ZM593.817 198.76L593.37 199.654L593.386 199.663L593.403 199.67L593.817 198.76ZM594.297 199L593.782 199.857L593.851 199.899L593.925 199.928L594.297 199ZM594.807 199.24L594.36 200.134L594.403 200.156L594.448 200.173L594.807 199.24ZM595.347 199.45L595.75 198.535L595.734 198.528L595.718 198.522L595.347 199.45ZM598.107 201.22L597.4 201.927L597.41 201.938L597.422 201.948L598.107 201.22ZM599.127 203.8H598.127C598.127 204.893 597.757 205.664 597.056 206.234L597.687 207.01L598.317 207.786C599.536 206.796 600.127 205.427 600.127 203.8H599.127ZM597.687 207.01L597.066 206.226C596.335 206.805 595.278 207.15 593.787 207.15V208.15V209.15C595.576 209.15 597.119 208.735 598.308 207.794L597.687 207.01ZM593.787 208.15V207.15C592.092 207.15 590.756 206.867 589.734 206.356L589.287 207.25L588.84 208.144C590.218 208.833 591.882 209.15 593.787 209.15V208.15ZM589.287 207.25H590.287V204.46H589.287H588.287V207.25H589.287ZM589.287 204.46L588.763 205.312C590.305 206.259 591.935 206.75 593.637 206.75V205.75V204.75C592.339 204.75 591.068 204.381 589.81 203.608L589.287 204.46ZM593.637 205.75V206.75C594.536 206.75 595.383 206.568 596.043 206.065L595.437 205.27L594.831 204.475C594.651 204.612 594.298 204.75 593.637 204.75V205.75ZM595.437 205.27L596.025 206.079C596.71 205.581 597.097 204.867 597.097 204.01H596.097H595.097C595.097 204.193 595.044 204.319 594.849 204.461L595.437 205.27ZM596.097 204.01H597.097C597.097 203.279 596.802 202.641 596.294 202.133L595.587 202.84L594.88 203.547C595.051 203.719 595.097 203.861 595.097 204.01H596.097ZM595.587 202.84L596.314 202.153C595.906 201.721 595.451 201.372 594.943 201.146L594.537 202.06L594.131 202.974C594.343 203.068 594.588 203.239 594.86 203.527L595.587 202.84ZM594.537 202.06L595.005 201.176C594.625 200.975 594.001 200.691 593.161 200.331L592.767 201.25L592.373 202.169C593.213 202.529 593.769 202.785 594.069 202.944L594.537 202.06ZM592.767 201.25L593.148 200.325C592.055 199.875 591.319 199.353 590.86 198.798C590.416 198.261 590.197 197.652 590.197 196.93H589.197H588.197C588.197 198.108 588.573 199.169 589.319 200.072C590.05 200.957 591.099 201.645 592.386 202.175L592.767 201.25ZM589.197 196.93H590.197C590.197 195.878 590.569 195.133 591.302 194.576L590.697 193.78L590.092 192.984C588.824 193.947 588.197 195.302 588.197 196.93H589.197ZM590.697 193.78L591.302 194.576C592.096 193.973 593.122 193.64 594.447 193.64V192.64V191.64C592.772 191.64 591.298 192.067 590.092 192.984L590.697 193.78ZM594.447 192.64V193.64C596.018 193.64 597.128 193.854 597.855 194.202L598.287 193.3L598.718 192.398C597.606 191.866 596.156 191.64 594.447 191.64V192.64ZM598.287 193.3H597.287V195.97H598.287H599.287V193.3H598.287ZM598.287 195.97L598.796 195.109C597.617 194.411 596.165 194.1 594.507 194.1V195.1V196.1C595.929 196.1 596.997 196.369 597.778 196.831L598.287 195.97ZM594.507 195.1V194.1C593.659 194.1 592.864 194.294 592.221 194.785L592.827 195.58L593.433 196.375C593.63 196.226 593.955 196.1 594.507 196.1V195.1ZM592.827 195.58L592.202 194.799C591.561 195.312 591.227 196.022 591.227 196.84H592.227H593.227C593.227 196.618 593.293 196.488 593.452 196.361L592.827 195.58ZM592.227 196.84H591.227C591.227 197.028 591.24 197.215 591.267 197.401L592.257 197.26L593.247 197.119C593.233 197.025 593.227 196.932 593.227 196.84H592.227ZM592.257 197.26L591.308 197.576C591.374 197.773 591.464 197.964 591.569 198.146L592.437 197.65L593.305 197.154C593.249 197.056 593.22 196.987 593.206 196.944L592.257 197.26ZM592.437 197.65L591.605 198.205C591.678 198.314 591.739 198.411 591.789 198.494L592.647 197.98L593.504 197.466C593.435 197.349 593.356 197.226 593.269 197.095L592.437 197.65ZM592.647 197.98L591.94 198.687C592.097 198.844 592.289 198.981 592.477 199.098L593.007 198.25L593.537 197.402C593.475 197.363 593.429 197.332 593.397 197.307C593.363 197.282 593.352 197.271 593.354 197.273L592.647 197.98ZM593.007 198.25L592.477 199.098C592.539 199.137 592.584 199.168 592.617 199.192C592.65 199.218 592.662 199.229 592.66 199.227L593.367 198.52L594.074 197.813C593.917 197.656 593.725 197.519 593.537 197.402L593.007 198.25ZM593.367 198.52L592.852 199.377C592.986 199.458 593.163 199.551 593.37 199.654L593.817 198.76L594.264 197.866C594.07 197.769 593.948 197.702 593.881 197.663L593.367 198.52ZM593.817 198.76L593.403 199.67C593.617 199.768 593.734 199.828 593.782 199.857L594.297 199L594.811 198.143C594.66 198.052 594.457 197.952 594.231 197.85L593.817 198.76ZM594.297 199L593.925 199.928C593.982 199.951 594.119 200.014 594.36 200.134L594.807 199.24L595.254 198.346C595.015 198.226 594.811 198.129 594.668 198.072L594.297 199ZM594.807 199.24L594.448 200.173C594.708 200.273 594.882 200.341 594.975 200.378L595.347 199.45L595.718 198.522C595.611 198.479 595.426 198.407 595.166 198.307L594.807 199.24ZM595.347 199.45L594.944 200.365C596.051 200.853 596.854 201.381 597.4 201.927L598.107 201.22L598.814 200.513C598.04 199.739 597.003 199.087 595.75 198.535L595.347 199.45ZM598.107 201.22L597.422 201.948C597.869 202.369 598.127 202.949 598.127 203.8H599.127H600.127C600.127 202.491 599.705 201.351 598.792 200.492L598.107 201.22Z" fill="#FAFAFA" mask="url(#path-21-outside-1_386_77)"/>
<path d="M245.01 208H242.07V192.79H245.01V195.46C245.75 193.58 247.08 192.64 249 192.64C249.28 192.64 249.59 192.67 249.93 192.73V195.61C249.51 195.43 249.04 195.34 248.52 195.34C247.5 195.34 246.66 195.79 246 196.69C245.34 197.59 245.01 198.66 245.01 199.9V208ZM272.306 208H269.366V198.4C269.366 197.36 269.096 196.56 268.556 196C268.036 195.42 267.346 195.13 266.486 195.13C265.486 195.13 264.596 195.51 263.816 196.27C263.056 197.03 262.676 198.19 262.676 199.75V208H259.736V186.79H262.676V195.4C263.536 193.52 265.106 192.58 267.386 192.58C268.866 192.58 270.056 193.04 270.956 193.96C271.856 194.88 272.306 196.16 272.306 197.8V208ZM290.929 207.58C289.469 211.48 287.239 213.43 284.239 213.43C283.699 213.43 283.239 213.38 282.859 213.28V210.76C283.179 210.84 283.519 210.88 283.879 210.88C285.819 210.88 287.179 209.81 287.959 207.67L281.899 192.79H285.169L287.059 197.74L289.429 204.16C289.609 203.56 290.329 201.42 291.589 197.74L293.299 192.79H296.419L290.929 207.58ZM314.357 207.61C313.697 207.97 312.887 208.15 311.927 208.15C308.787 208.15 307.217 206.56 307.217 203.38V195.07H304.847V192.79H307.217V189.07H310.187V192.79H314.177V195.07H310.187V203.44C310.187 204.9 310.887 205.63 312.287 205.63C313.107 205.63 313.797 205.41 314.357 204.97V207.61ZM337.667 208H334.727V198.4C334.727 197.36 334.457 196.56 333.917 196C333.397 195.42 332.707 195.13 331.847 195.13C330.847 195.13 329.957 195.51 329.177 196.27C328.417 197.03 328.037 198.19 328.037 199.75V208H325.097V186.79H328.037V195.4C328.897 193.52 330.467 192.58 332.747 192.58C334.227 192.58 335.417 193.04 336.317 193.96C337.217 194.88 337.667 196.16 337.667 197.8V208ZM370.031 208H367.091V198.4C367.091 196.22 366.211 195.13 364.451 195.13C363.571 195.13 362.781 195.52 362.081 196.3C361.401 197.08 361.061 198.23 361.061 199.75V208H358.121V198.4C358.121 196.22 357.231 195.13 355.451 195.13C354.591 195.13 353.811 195.52 353.111 196.3C352.411 197.08 352.061 198.23 352.061 199.75V208H349.121V192.79H352.061V195.22C352.921 193.46 354.351 192.58 356.351 192.58C358.631 192.58 360.091 193.56 360.731 195.52C361.151 194.58 361.761 193.86 362.561 193.36C363.361 192.84 364.261 192.58 365.261 192.58C366.821 192.58 368.001 193.04 368.801 193.96C369.621 194.88 370.031 196.15 370.031 197.77V208ZM408.136 194.8C409.396 196.26 410.026 198.13 410.026 200.41C410.026 202.69 409.376 204.57 408.076 206.05C406.796 207.53 405.026 208.27 402.766 208.27C400.526 208.27 398.766 207.54 397.486 206.08C396.206 204.62 395.566 202.77 395.566 200.53C395.566 198.25 396.226 196.36 397.546 194.86C398.866 193.34 400.606 192.58 402.766 192.58C405.086 192.58 406.876 193.32 408.136 194.8ZM398.626 200.44C398.626 201.94 398.996 203.21 399.736 204.25C400.476 205.27 401.486 205.78 402.766 205.78C404.126 205.78 405.156 205.28 405.856 204.28C406.576 203.28 406.936 202.01 406.936 200.47C406.936 198.89 406.596 197.6 405.916 196.6C405.236 195.58 404.176 195.07 402.736 195.07C401.436 195.07 400.426 195.59 399.706 196.63C398.986 197.65 398.626 198.92 398.626 200.44ZM428.25 195.07H425.04V208H422.1V195.07H419.67V192.79H422.1V191.62C422.1 190.04 422.52 188.8 423.36 187.9C424.22 186.98 425.42 186.52 426.96 186.52C427.52 186.52 428.09 186.6 428.67 186.76V189.34C428.21 189.14 427.73 189.04 427.23 189.04C425.77 189.04 425.04 189.91 425.04 191.65V192.79H428.25V195.07Z" fill="#FAFAFA"/>
</svg>
