<svg width="1162" height="1162" viewBox="0 0 1162 1162" fill="none" xmlns="http://www.w3.org/2000/svg">
<path d="M770.49 369.185C770.49 369.185 823.127 348.667 818.74 398.495C817.278 419.013 804.12 490.824 793.884 568.498L758.793 798.586C758.793 798.586 755.87 832.293 729.551 838.156C703.232 844.017 663.755 817.639 656.444 811.776C650.595 807.38 546.785 741.43 510.231 709.189C499.996 700.395 488.299 682.809 511.693 662.291L665.217 515.739C682.763 498.152 700.308 457.117 627.201 506.945L422.503 646.171C422.503 646.171 399.109 660.826 355.246 647.637L260.207 618.326C260.207 618.326 225.116 596.343 285.063 574.359C431.277 505.479 611.119 435.133 770.49 369.185Z" fill="#D6D6D6" fill-opacity="0.7"/>
<circle cx="581" cy="581" r="544.5" stroke="#D6D6D6" stroke-opacity="0.7" stroke-width="73"/>
</svg>
