<svg width="1162" height="1162" viewBox="0 0 1162 1162" fill="none" xmlns="http://www.w3.org/2000/svg">
<path d="M319.61 391.309C324.591 353.329 375.779 301.711 416.403 307.438L416.338 307.376C455.874 314.62 487.17 380.235 504.817 409.738C517.321 431.145 509.202 452.834 497.539 461.986C481.805 474.214 457.202 491.086 462.364 508.026C471.541 538.142 580.5 643.207 634.09 673.075C654.373 684.379 669.083 654.562 681.643 639.286C690.77 627.535 713.28 620.513 735.429 632.112C768.509 650.687 799.671 672.276 828.488 696.58C842.88 708.179 846.257 725.321 836.285 743.438C818.721 775.349 767.921 817.429 731.045 808.877C666.638 793.945 406.167 696.58 322.501 414.503C317.796 401.158 318.98 396.113 319.61 391.309Z" fill="#D6D6D6" fill-opacity="0.7"/>
<path fill-rule="evenodd" clip-rule="evenodd" d="M581 1122.88C516.372 1122.88 480.614 1116.18 422.545 1097.36L311.333 1151.09C241.095 1185.03 158.455 1135.67 158.455 1059.79V944.237C44.7132 841.749 0 723.577 0 561.438C0 251.365 260.123 0 581 0C901.876 0 1162 251.365 1162 561.438C1162 871.511 901.876 1122.88 581 1122.88ZM264.091 899.848L230.496 869.576C142.127 789.954 105.636 700.935 105.636 561.438C105.636 307.742 318.464 102.08 581 102.08C843.538 102.08 1056.36 307.742 1056.36 561.438C1056.36 815.137 843.538 1020.8 581 1020.8C528.937 1020.8 504.519 1016.25 456.135 1000.58L414.542 987.095L264.091 1059.79V899.848Z" fill="#D6D6D6" fill-opacity="0.7"/>
</svg>
